<?xml version="1.0" encoding="UTF-8" standalone="no"?>
<!-- Generator: Adobe Illustrator 22.0.0, SVG Export Plug-In . SVG Version: 6.00 Build 0)  -->

<svg
   xmlns:dc="http://purl.org/dc/elements/1.1/"
   xmlns:cc="http://creativecommons.org/ns#"
   xmlns:rdf="http://www.w3.org/1999/02/22-rdf-syntax-ns#"
   xmlns:svg="http://www.w3.org/2000/svg"
   xmlns="http://www.w3.org/2000/svg"
   xmlns:sodipodi="http://sodipodi.sourceforge.net/DTD/sodipodi-0.dtd"
   xmlns:inkscape="http://www.inkscape.org/namespaces/inkscape"
   version="1.1"
   id="Layer_1"
   x="0px"
   y="0px"
   viewBox="0 0 256.02692 317.01334"
   xml:space="preserve"
   sodipodi:docname="weeman-vector.svg"
   inkscape:version="0.92.0 r15299"
   width="256.02692"
   height="317.01334"><metadata
     id="metadata201"><rdf:RDF><cc:Work
         rdf:about=""><dc:format>image/svg+xml</dc:format><dc:type
           rdf:resource="http://purl.org/dc/dcmitype/StillImage" /></cc:Work></rdf:RDF></metadata><defs
     id="defs199" /><sodipodi:namedview
     pagecolor="#ffffff"
     bordercolor="#666666"
     borderopacity="1"
     objecttolerance="10"
     gridtolerance="10"
     guidetolerance="10"
     inkscape:pageopacity="0"
     inkscape:pageshadow="2"
     inkscape:window-width="1920"
     inkscape:window-height="1017"
     id="namedview197"
     showgrid="false"
     inkscape:zoom="0.2079063"
     inkscape:cx="-312.18288"
     inkscape:cy="27.728306"
     inkscape:window-x="-8"
     inkscape:window-y="-8"
     inkscape:window-maximized="1"
     inkscape:current-layer="Layer_1" /><style
     type="text/css"
     id="style2">
	.st0{fill:#FEFEFE;}
	.st1{fill:#FDFDFD;}
	.st2{fill:#FCFCFC;}
	.st3{fill:#FBFBFB;}
	.st4{fill:#FAFAFA;}
	.st5{fill:#F9F9F9;}
	.st6{fill:#0B0B0B;}
	.st7{fill:#F8F8F8;}
	.st8{fill:#EFEFEF;}
	.st9{fill:#101010;}
	.st10{fill:#F4F4F4;}
	.st11{fill:#E7E7E7;}
	.st12{fill:#EBEBEB;}
	.st13{fill:#E8E8E8;}
	.st14{fill:#2A2A2A;}
	.st15{fill:#E1E1E1;}
	.st16{fill:#E2E2E2;}
	.st17{fill:#DADADA;}
	.st18{fill:#F0F0F0;}
	.st19{fill:#222222;}
	.st20{fill:#DFDFDF;}
	.st21{fill:#D4D4D4;}
	.st22{fill:#AEAEAE;}
	.st23{fill:#C2C2C2;}
	.st24{fill:#E3E3E3;}
	.st25{fill:#F6F6F6;}
	.st26{fill:#D7D7D7;}
	.st27{fill:#3A3A3A;}
	.st28{fill:#6B6B6B;}
	.st29{fill:#1F1F1F;}
	.st30{fill:#010101;}
	.st31{fill:#1B1B1B;}
	.st32{fill:#585858;}
	.st33{fill:#B4B4B4;}
	.st34{fill:#0A0A0A;}
	.st35{fill:#060606;}
	.st36{fill:#393939;}
	.st37{fill:#292929;}
	.st38{fill:#232323;}
	.st39{fill:#070707;}
	.st40{fill:#1E1E1E;}
	.st41{fill:#3F3F3F;}
	.st42{fill:#1D1D1D;}
	.st43{fill:#545454;}
	.st44{fill:#161616;}
	.st45{fill:#F3F3F3;}
	.st46{fill:#F7F7F7;}
	.st47{fill:#ECECEC;}
	.st48{fill:#E6E6E6;}
	.st49{fill:#F1F1F1;}
	.st50{fill:#EAEAEA;}
	.st51{fill:#D3D3D3;}
	.st52{fill:#D6D6D6;}
	.st53{fill:#CECECE;}
	.st54{fill:#E0E0E0;}
	.st55{fill:#EEEEEE;}
	.st56{fill:#B9B9B9;}
	.st57{fill:#DEDEDE;}
	.st58{fill:#D9D9D9;}
	.st59{fill:#EDEDED;}
	.st60{fill:#DBDBDB;}
</style><g
     id="g194"
     transform="translate(-276.10895,-94.714968)"><g
       id="g192"><path
         d="m 532.1,248.4 c -0.1,37 -6.7,67.8 -22.5,96.1 -16.2,29.2 -39.2,50.8 -71.3,61.6 -11.3,3.8 -23,5.9 -34.9,5.6 -30,-0.9 -56.1,-11.6 -77.9,-32.6 -25.1,-24.2 -39.1,-54 -45.5,-87.8 -2.7,-14.1 -4.3,-28.4 -3.8,-42.8 1.4,-36.8 10.2,-71.5 32.1,-101.8 17.9,-24.8 41.1,-42.8 71.5,-49.2 34.3,-7.3 65.9,-0.3 93.7,21.6 30.5,23.9 46.8,56.2 54.5,93.5 2.8,13.3 4.4,26.8 4.1,35.8 z"
         id="path6"
         inkscape:connector-curvature="0" /><path
         class="st0"
         d="m 452.7,233.1 c -2.1,-2.1 -2.3,-5.1 -3.6,-7.6 -1.3,-2.4 -2.4,-4.6 -5.1,-5.7 -1.6,-0.6 -3.1,-2 -2.8,-3.8 1.5,-8.4 -2.9,-15.9 -3.2,-24 -1.2,-4.1 0.3,-8.4 -0.9,-12.5 -0.6,-5.3 -3.6,-8.3 -8.8,-9.4 -3.3,-0.7 -6.2,-2.4 -9.2,-3.7 -3.3,-1.5 -4.8,-3.4 -4.4,-8 0.4,-4.9 -0.7,-10.8 -4.8,-15 -1.9,-1.9 -3,-3.9 -3.7,-6.7 -1.2,-4.7 -6.1,-6.4 -10,-7.9 -4.6,-1.8 -9.7,-3.4 -15,-1.2 -2.7,1.2 -5.1,-0.9 -7.7,-1.2 -1.7,-0.3 -3.1,0.4 -4.5,1.2 -0.4,0.2 -0.9,0.3 -1.4,0.3 -0.7,0.1 -1.4,0 -2.2,-0.2 -4.5,-1.2 -5.6,2 -6.1,5.2 -0.8,4.8 1.3,8.7 4.2,12.4 2.2,2.7 4.7,5.3 2.9,9.3 -0.4,1 0.1,2 0.8,2.8 3.2,3.8 3.5,8 2.3,12.6 -0.7,2.5 -0.9,5.3 -0.1,7.9 1,3.4 3.4,4 5.7,1.4 1.5,-1.7 3.1,-3 5.3,-3.6 3.3,-0.9 6.7,1.6 6.4,5 -0.3,4.1 -1.2,8.2 -3.3,11.9 -1.4,2.4 -3.3,3.8 -6.1,1.5 -2.2,-1.9 -5,-2.6 -7.7,-3.3 -4.3,-1.7 -8.7,-1.8 -13.1,-1 -1.3,0.4 -2.8,0.4 -3.9,1.4 -2.5,3 -3.5,5.9 -1.1,9.9 1.6,2.6 1.6,6.1 1.6,9.3 0,2.9 1.1,4.9 3.9,5.6 7.4,2.1 11.2,7.2 12.8,14.5 0.7,3.1 1.9,6 3.8,8.6 3.8,5 7.5,5.4 11.9,1 1.4,-1.4 2.8,-2.8 4.3,-4.2 1.2,-1.3 2.6,-2.1 4.2,-2.6 3.3,3.3 0.9,5.9 -1.3,8 -4.8,4.6 -7.2,9.7 -7.2,16.5 0,5.5 -2.2,10.7 -4.8,15.6 -3.3,6.3 -6.6,12.6 -7.2,20 -0.3,3.2 -3.3,5.7 -3.8,9.1 -1.3,8.7 0,17.1 3,25.2 3.1,8.5 6.3,16.9 6.3,26 0.1,8.3 -1.8,10.1 -9.9,10.3 -3.3,0.1 -6.7,0.1 -9.8,1.6 -3.3,1.7 -5.1,4.5 -4.6,8.1 0.4,3.3 3.5,4 6,4.3 9.3,1 18.3,3.1 27.3,5.8 7.3,2.2 10.2,-1.2 7.6,-8.5 -1.4,-4 -1.3,-7.7 0,-11.6 1.6,-5 2.3,-10.2 2.2,-15.5 0,-0.8 -0.1,-1.8 0.2,-2.5 5,-10 1.9,-19.5 -1.6,-29 -1.3,-3.5 -1.7,-6.5 -0.4,-10.4 1.7,-4.8 4.9,-6.3 9,-7.2 3.9,-0.9 6.2,-0.5 8.7,4.4 4,8 4.9,16.1 5.6,24.5 0.4,4.5 3.7,4.2 6.3,4.7 3.2,0.6 6.4,0.2 8.4,-2.9 1.2,-1.8 -1,-2.9 -1.2,-4.5 1.9,-1.2 2.8,0.5 3.8,1.4 10.4,9.5 23.2,13.4 36.7,15.1 1.7,0.2 3.2,0.7 4.3,2.2 2.4,3.4 0.6,14.6 -2.7,16.9 -2,1.4 -5,2.2 -4.9,5.1 0.1,3.2 3.6,3.3 6.2,4.7 -14.8,14.3 -31.7,24.4 -51.6,28.2 -42.7,8.1 -76.8,-7.3 -103.7,-40.2 -20,-24.5 -29.6,-53.3 -32.9,-84.4 -3.5,-32.9 0.3,-64.9 13.8,-95.3 13.2,-29.7 33.2,-53.4 63.9,-66.3 40.1,-16.8 84.7,-6 115.1,27.3 20.7,22.7 32.5,49.7 37.4,79.7 6.5,39.8 2.3,78.3 -15.6,114.8 -1.9,3.8 -2.9,4.8 -7.6,2.8 -9.9,-4.3 -17.3,-11.7 -25.2,-18.2 -6.8,-5.5 -14.7,-8.2 -22.3,-11.7 -1.9,-0.9 -3,-1.5 -3.1,-3.7 -0.2,-3.8 -0.7,-7.6 -1.1,-11.4 -0.1,-0.7 -0.3,-1.6 0,-1.9 5.5,-4.7 5.1,-13.2 10.5,-17.5 7.6,-6.1 5.9,-7.3 3.7,-17 -0.2,-0.6 -1.4,-1.1 -0.6,-2 6.1,-7.7 1.7,-13.8 -2.9,-19.9 -0.9,0.5 -1.2,0 -1.4,-0.9 z"
         id="path8"
         inkscape:connector-curvature="0"
         style="fill:#fefefe" /><path
         class="st1"
         d="m 398.2,219.4 c -0.2,2.1 -0.5,4.2 -3.2,4.4 -0.5,0.1 -1,-0.1 -1.5,-0.1 -0.4,0.1 -0.5,0.3 -0.4,0.7 0.1,0.3 0.1,0.5 0.2,0.5 0.1,0.4 0,0.7 -0.3,1 -1.6,0.4 -4.4,0.5 -1.2,2.8 1.9,1.3 1.2,2.7 0.9,4.2 -0.2,1.3 -1.1,2 -2.1,2.7 -4.3,1.7 -5.8,1.1 -6.9,-3 -0.4,-1.5 -0.9,-2.8 -1.7,-4.1 -2.2,-3.7 -3,-7.1 0.5,-10.9 1.7,-1.9 3.4,-4.6 2.3,-7.7 -0.8,-2.2 1.1,-2.9 2.3,-3.9 1.3,-1.1 2.1,-2 0.5,-3.6 -5.1,-5.1 -4.9,-8.6 0.8,-14.6 0.4,-0.5 2.1,0.2 1.3,-1.4 1,-2.9 3.1,-5.1 5.3,-7 2.2,-2 2.3,-4 -0.3,-4.9 -5.2,-1.8 -5.4,-5.4 -4.5,-9.8 0.4,-1.9 -0.3,-4 0.5,-5.9 0.9,-1.1 1.8,-2.4 3.6,-2.1 3.1,2 0.6,6.4 2.8,7.9 1.9,1.4 5.4,-0.1 7.9,1.7 1.3,0.9 1.9,2.2 2.3,3.7 0.2,0.8 0.5,1.7 1.6,1.6 1.2,-0.1 1.4,-1.1 1.5,-2.2 0.5,-6.9 0.5,-6.9 6.9,-3.2 2.2,1.2 4.6,1.9 6.8,3 2.1,0.9 4.4,1.6 5.2,4.2 -0.2,1.8 -1.3,3.1 -2.7,4.1 -1,0.5 -2.1,0.7 -2.9,1.6 -1,2.2 -1.9,4.4 -5.3,3.4 0.7,2.5 4.3,3.7 2.7,6.7 -2.4,2 -5.5,-1.1 -8.5,1.5 3.5,-1 6.3,-1.1 7.3,2.6 0.9,3.4 -1.7,7.7 -6.3,9.6 -3.7,1.5 -5.2,-1.3 -6.6,-4 -0.3,-2.3 -1.2,-4.1 -4,-5 1.6,6.9 -0.6,13 -3,19 -0.3,0.3 -0.6,0.5 -0.9,0.7 -0.7,0.3 -1.4,0.4 -2,1 0.2,1.7 2.1,3 1.1,4.8 z"
         id="path10"
         inkscape:connector-curvature="0"
         style="fill:#fdfdfd" /><path
         class="st2"
         d="m 407.4,232.2 c 0.4,-1 2,-1.7 1.1,-2.9 -0.7,-1 -1.8,0 -2.7,0.3 -2,0.6 -4.4,1.7 -5.3,-1.4 -0.7,-2.6 0.9,-3.8 3.4,-4.4 2.3,-0.5 4.5,-1.4 7,-2.2 -2.3,-2.1 -5.8,0.8 -6.5,-1.4 -1,-2.8 -0.4,-6.2 -0.2,-9.3 0.2,-2.8 1,-5.5 2.7,-7.8 3.9,3.8 7.9,-1.4 12,0.2 0.6,0.2 0.5,-2.3 0.8,-3.5 0.7,-2.8 -0.7,-6.5 3.3,-7.9 1.1,0.8 1.6,1.9 2.1,3.1 0.9,2.4 1.1,5 1.8,7.4 -0.4,6 -1.8,12 -1.1,18.2 0.2,1.7 -0.8,3.5 -2.4,4.6 -1.8,0.5 -2.1,-0.9 -2.4,-2.1 -0.2,-0.8 -0.1,-1.6 -0.3,-2.3 -0.3,0.1 -0.5,0.2 -0.5,0.6 -0.1,1.7 0.2,3.5 -1.1,5 -2.2,1.2 -2.7,3.9 -4.6,5.4 -2.3,0.5 -4.6,1.7 -7.1,0.4 z"
         id="path12"
         inkscape:connector-curvature="0"
         style="fill:#fcfcfc" /><path
         class="st2"
         d="m 412.2,248.8 c 0.5,-4.2 3.2,-3.4 6.3,-3.2 9,0.6 17.7,-0.3 25.2,-6.6 1.7,-1.5 4.2,1.6 5.3,3.6 1.6,3.1 1.3,6.6 -0.7,9.5 -3.3,5.1 -7.6,8.7 -14.3,7.4 -2.9,-0.6 -5.8,-1.1 -8.8,-1.7 -0.8,-1.5 0.6,-2.8 0.3,-4.3 -0.7,-4.3 2,-4.5 5.1,-3.9 -6.3,-1.1 -10.1,0.8 -10.8,5.3 -4.1,-0.2 -6.8,-2.1 -7.7,-6.2 z"
         id="path14"
         inkscape:connector-curvature="0"
         style="fill:#fcfcfc" /><path
         class="st2"
         d="m 423,177.9 c 0.8,-1 1.9,-0.8 3,-0.8 1.4,0.8 2.5,0.3 3.3,-0.9 0.7,-1 1.3,-1.9 2.7,-1.5 5,2.8 6.1,7.5 6,12.7 0,1.6 0,3.2 -0.8,4.7 -0.2,2.7 -3.2,2.6 -4.4,4.3 -1.1,1.6 -2.4,3.7 0.7,3.6 4,0 4.1,2.4 4.4,5 0.2,2.5 0.3,4.9 0.3,7.4 0,1.9 0.3,3.6 -2.9,3.5 -2.7,-0.1 -1.9,2.9 -2.2,4.7 0.2,0.3 0.3,0.5 0.3,0.8 0,0.3 -0.1,0.4 -0.2,0.4 -4.1,-1.2 -6.5,-5.7 -4.1,-8.7 1.5,-1.9 0.9,-2.9 0,-4.2 -2,-3 -2.7,-6.3 -3.2,-9.8 -0.1,-1.9 -1,-3.5 -1.5,-5.3 -1.3,-3.6 -0.2,-5.7 3.7,-6.1 1.3,-0.1 2.2,-0.5 2,-2 0.1,-1.4 1.6,-3.2 -1.4,-3.8 -1.2,1.7 2.2,3.8 -0.2,5.4 -5.5,1.1 -7.2,-0.4 -6.3,-5.7 0.4,-1.1 0.9,-2.4 0.8,-3.7 z"
         id="path16"
         inkscape:connector-curvature="0"
         style="fill:#fcfcfc" /><path
         class="st3"
         d="m 428.6,323.7 c -1.4,0.9 -3.1,0.3 -4.7,0.4 -0.8,0.1 -1.6,0.3 -1.7,-1 -2.4,-18.3 -8.4,-35.5 -16.5,-52.1 -3.2,-6.6 -5.4,-13.5 -7.5,-20.7 3,-0.9 5.2,-1.3 4.4,3.2 -0.5,2.5 1.5,4.7 2.5,6.9 3.7,8.6 7.5,17.3 11.4,25.8 4.1,9 10.6,17.7 9.9,28.7 -0.2,2.9 1.4,5.9 2.2,8.8 z"
         id="path18"
         inkscape:connector-curvature="0"
         style="fill:#fbfbfb" /><path
         class="st3"
         d="m 452.2,316.7 c 1.7,0.9 4.1,1.3 4.9,2.7 3.1,5.4 10.8,4.4 13.5,10.2 6.9,-2.7 9.1,5.4 14.4,6.4 1.7,0.3 2.5,1.6 2.9,3 0.5,1.6 1.2,3.4 -0.5,4.5 -1.4,1 -3.3,0.2 -4.1,-0.9 -3.7,-5.2 -10.1,-6 -15,-9.2 -5.5,-3.5 -12.1,-5.2 -18.3,-7.6 -1.7,-0.7 -3.5,-0.8 -2.5,-3.6 0.9,-2.5 1.2,-5.2 4.7,-5.5 z"
         id="path20"
         inkscape:connector-curvature="0"
         style="fill:#fbfbfb" /><path
         class="st3"
         d="m 429,234 c -1.1,-0.1 -0.5,-2.6 -2.4,-1.5 -2.3,1.3 -4.7,3.2 -4.1,5.7 1.2,5.1 -1.9,4.5 -4.8,4.4 -2.3,-0.1 -4.7,-0.4 -6.9,-1 -4.3,-1.3 -4.7,-2.9 -1.8,-6.6 1.2,-2.7 4,-2.5 6.1,-3.5 1.6,-1.7 3,-3.4 5.3,-4.2 2.4,-0.9 4.2,-2.4 5.3,-4.8 0.8,-1.6 2.5,-3 3.7,-0.8 1.8,3.4 5.1,6.9 2.2,11.3 -0.6,0.8 -1.4,1.5 -2.6,1 z"
         id="path22"
         inkscape:connector-curvature="0"
         style="fill:#fbfbfb" /><path
         class="st4"
         d="m 386.6,332.8 c -3,-2 1,-6.6 -2.6,-9.5 -1.3,-1.1 -0.3,-2.9 0.2,-4.2 0.6,-1.7 1.1,-3.4 0.8,-5.1 -0.1,-0.7 -1.9,-1.4 0,-2.1 1,-0.4 2.3,-1.4 3.1,0 0.9,1.7 3.9,2.5 1.9,5.6 -1.4,2.3 0.6,5 1.8,7.1 2.4,4.1 4.9,7.8 1.7,12.7 -0.6,1 1.3,4.3 -1.9,2.9 -2.5,-1.1 -6.2,-2.2 -5,-7.4 z"
         id="path24"
         inkscape:connector-curvature="0"
         style="fill:#fafafa" /><path
         class="st5"
         d="m 391.6,346.7 c 3.3,3.9 1.5,8 1.6,11.6 0.1,4 -1.2,8.2 -2.6,12 -1.4,4.1 -5.3,4.6 -8.8,3.5 -3.1,-1 -2.1,-4.1 -1.7,-6.5 0.3,-1.7 1.2,-2.9 3.1,-2.3 2.6,0.7 4,-1.9 6.4,-2 0.6,0 1.3,-0.9 1.2,-1.9 -1.1,-6.3 -1.1,-6.3 0.8,-14.4 z"
         id="path26"
         inkscape:connector-curvature="0"
         style="fill:#f9f9f9" /><path
         class="st3"
         d="m 432.9,222.2 c 0.1,-0.5 0.1,-1 0.2,-1.5 0.6,0.1 1.2,0.3 1.9,0.4 1.4,1.2 3.3,-0.2 4.7,1 1.4,1.6 -1.2,2.5 -0.7,4 0.6,1.8 0.6,4 3.4,2.9 0.8,-0.3 1.5,-1.6 2.5,-0.6 0.8,0.9 0.6,2.2 0.2,3.3 -1.9,4.8 -5.6,7.6 -10.1,9.5 -2.5,1 -5.3,1.3 -8.1,2 -0.1,-2.7 1,-4.4 1.9,-6.2 0.6,-0.4 1.2,-0.7 1.9,-0.7 1.6,0.2 2.5,-0.7 2.6,-2.2 0.2,-1.9 0.1,-3.9 1.8,-5.4 0.9,-0.8 0.3,-1.8 -0.3,-2.6 -0.9,-1.3 -2.2,-2.2 -1.9,-3.9 z"
         id="path28"
         inkscape:connector-curvature="0"
         style="fill:#fbfbfb" /><path
         class="st6"
         d="m 423,192 c -3.5,3.3 -0.7,8 -2.5,11.8 -0.2,0.3 1.1,1.6 -0.3,2.1 -1,0.4 -1.9,-0.2 -2.5,-1.1 -0.6,-0.8 -1.4,-3.3 -2.6,-1 -3.5,6.7 -5.6,1.1 -8.1,-0.7 0,-1.4 0,-2.7 0,-4.1 0.5,1.8 3.6,0.6 3.6,3.1 0,0.2 0.8,0.5 1.3,0.5 3,0.2 8.5,-7.5 7,-10.1 -1.6,-2.6 -3.7,-1.8 -5.7,-0.1 -0.8,0.7 -1.5,2.5 -2.7,1.5 -1.6,-1.3 0.8,-2.1 1,-3.2 0.7,-3.8 2.8,-4 5.6,-2.3 1.3,0.8 2.6,0.2 3.8,0.4 2.4,0 2.4,1.5 2.1,3.2 z"
         id="path30"
         inkscape:connector-curvature="0"
         style="fill:#0b0b0b" /><path
         class="st7"
         d="m 441,266.1 c 2.6,-0.6 5.7,-0.3 4.6,-4.9 -0.5,-2.1 2,-3.6 4.3,-4.1 1.4,-0.3 3.1,-0.6 3.5,1.6 0.4,2.4 1.1,5.8 -1.2,6.8 -3.7,1.7 -7.2,4 -11.4,4.6 -1.9,0.3 -2.9,0 -2.7,-2.1 -0.5,-2.6 2.1,-0.8 2.9,-1.9 z"
         id="path32"
         inkscape:connector-curvature="0"
         style="fill:#f8f8f8" /><path
         class="st8"
         d="m 389,297.1 c -0.7,3 2.2,7.2 -3,8.6 -1.8,0.5 -3.2,-0.8 -2.2,-1.8 3.2,-3.6 -0.6,-5.5 -2.1,-6.8 -1.8,-1.7 -1.3,-3.1 -1.1,-4.7 0.3,-2 0.2,-1.7 2.3,-0.5 2.2,1.3 5.1,1.4 7.1,3.3 0.6,1 -0.5,1.3 -1,1.9 z"
         id="path34"
         inkscape:connector-curvature="0"
         style="fill:#efefef" /><path
         class="st9"
         d="m 419.9,255 c -2,-5.6 -2,-5.6 4.7,-6.1 3,-0.2 6.1,-1.1 9.1,0.6 -1.4,2.6 -3.5,0.6 -5.3,0.9 -1.3,0.2 -3.9,1.1 -2.3,2.3 4.2,3 0.1,3.6 -0.9,5.2 -1.7,-1 -3.5,-2 -5.3,-2.9 z"
         id="path36"
         inkscape:connector-curvature="0"
         style="fill:#101010" /><path
         class="st10"
         d="m 431.6,272.9 c 4.7,-0.3 9.5,-0.4 14.7,-1.9 -5.3,5.8 -12.5,6.8 -18.2,3 0.3,-2.7 2.1,-1.1 3.5,-1.1 z"
         id="path38"
         inkscape:connector-curvature="0"
         style="fill:#f4f4f4" /><path
         class="st11"
         d="m 452.7,233.1 c 0.5,0.3 1,0.7 1.5,1 -1.7,3.6 1.7,6.9 0.4,10.5 -3.6,0.2 -3.2,-3 -4.3,-5 -1.1,-2 0.9,-4.9 -2.1,-6.3 1.6,-1.4 3.2,2 4.5,-0.2 z"
         id="path40"
         inkscape:connector-curvature="0"
         style="fill:#e7e7e7" /><path
         class="st12"
         d="m 443.7,323.1 c -2.6,-3.3 -1,-6.9 -2.2,-10.1 -0.3,-0.7 1,-1.1 1.9,-0.8 1.9,0.6 3.7,1.2 5.8,1.9 -2.3,3 -5.6,4.8 -5.5,9 z"
         id="path42"
         inkscape:connector-curvature="0"
         style="fill:#ebebeb" /><path
         class="st11"
         d="m 427.5,266.1 c -2.8,0.1 -5.5,0 -6.5,-3.5 -0.2,-0.7 -1,-1.4 -0.2,-2.2 0.9,-0.8 1.5,0.3 2.2,0.4 3,0.4 4.4,3.3 7,4.3 -0.3,2.1 -1.6,1.1 -2.5,1 z"
         id="path44"
         inkscape:connector-curvature="0"
         style="fill:#e7e7e7" /><path
         class="st13"
         d="m 439.4,306.1 c -2.1,-0.8 -2.2,-2.3 -2.4,-3.5 -0.3,-1.7 -1.9,-3.4 -0.4,-5.1 0.7,-0.7 1.6,-0.1 2.1,0.6 1,1.7 3.5,2.9 1.7,5.5 -0.5,0.7 -0.6,1.5 -1,2.5 z"
         id="path46"
         inkscape:connector-curvature="0"
         style="fill:#e8e8e8" /><path
         class="st13"
         d="m 411.4,254 c 2.4,1.6 4.6,3 6.8,4.5 -1.1,1.6 -2.5,3 -4.1,2.1 -2,-1.3 -3.9,-3.1 -2.7,-6.6 z"
         id="path48"
         inkscape:connector-curvature="0"
         style="fill:#e8e8e8" /><path
         class="st14"
         d="m 415.1,232.3 c -2,0.9 -4.1,1.8 -6.1,2.7 0.7,-1.6 -4.8,0.2 -1.6,-2.9 2.5,-0.4 5,-0.9 7.5,-1.4 0.5,0.6 0.6,1.1 0.2,1.6 z"
         id="path50"
         inkscape:connector-curvature="0"
         style="fill:#2a2a2a" /><path
         class="st15"
         d="m 399.5,268.6 c 1.9,0.5 3.5,1.5 3.5,3.8 0,0.8 -1.7,2.2 -1.8,1.6 -0.7,-2.3 -4.2,-1 -4.2,-3.8 -0.1,-1.8 1.2,-1.5 2.5,-1.6 z"
         id="path52"
         inkscape:connector-curvature="0"
         style="fill:#e1e1e1" /><path
         class="st16"
         d="m 427.5,266.1 c 0.8,-0.3 1.6,-0.6 2.5,-0.9 3.6,1.1 7.4,0.6 11.1,0.9 -1,0.7 -2.1,1.4 -3.1,2 -3.6,-0.2 -7.3,-0.2 -10.5,-2 z"
         id="path54"
         inkscape:connector-curvature="0"
         style="fill:#e2e2e2" /><path
         class="st17"
         d="m 402.8,277.5 c 1.5,1.5 2.1,2.6 1.9,4 -0.2,1.5 -1.6,2 -2.8,2.2 -0.6,0.1 -1.6,0 -1.8,-0.3 -0.9,-1.5 0.8,-1.7 1.3,-2.6 0.5,-0.9 0.8,-1.9 1.4,-3.3 z"
         id="path56"
         inkscape:connector-curvature="0"
         style="fill:#dadada" /><path
         class="st18"
         d="m 431.6,272.9 c -1.3,0.2 -2.7,-0.2 -3.6,1.1 -2.3,-1.2 -5.7,-0.7 -7.2,-4 4.2,-0.8 7,2.9 10.8,2.9 z"
         id="path58"
         inkscape:connector-curvature="0"
         style="fill:#f0f0f0" /><path
         class="st19"
         d="m 437.2,192 c 0,-1.7 0,-3.4 0,-5.1 1.5,-2.6 -1.6,-5.8 1.1,-8.3 1.5,4.5 0.7,8.9 -0.1,13.3 l -0.4,0.1 z"
         id="path60"
         inkscape:connector-curvature="0"
         style="fill:#222222" /><path
         class="st20"
         d="m 405,247.4 c -1.9,-0.2 -3.7,-0.6 -5.6,0 -0.9,0.3 -2.2,0.6 -2.2,-0.9 -0.1,-1.5 1,-1.9 2.3,-1.7 2,0.3 4.1,0.6 5.5,2.3 z"
         id="path62"
         inkscape:connector-curvature="0"
         style="fill:#dfdfdf" /><path
         class="st21"
         d="m 430.8,328.5 c -0.6,1.6 -2,1.3 -3.3,1.5 -1.8,0.2 -1.7,-1 -1.6,-2.2 0.1,-1.2 0.6,-1.9 1.9,-1.2 1.1,0.4 2.8,0 3,1.9 z"
         id="path64"
         inkscape:connector-curvature="0"
         style="fill:#d4d4d4" /><path
         class="st13"
         d="m 398.2,219.4 c -0.1,-1.4 -1.2,-2.1 -2.1,-2.9 -1.1,-1 -1.9,-2.3 0,-3.5 1,1 1.9,1 2.9,0 0.3,0 0.7,0 1,0 -0.1,2.3 -0.4,4.5 -1.8,6.4 z"
         id="path66"
         inkscape:connector-curvature="0"
         style="fill:#e8e8e8" /><path
         class="st22"
         d="m 418.8,278.3 c 2.2,1.7 2.1,4 2.3,6.8 -2.8,-2 -2.2,-4.5 -2.3,-6.8 z"
         id="path68"
         inkscape:connector-curvature="0"
         style="fill:#aeaeae" /><path
         class="st23"
         d="m 405,247.4 c 0,0 -0.1,-0.3 -0.1,-0.3 2.6,-0.1 5.3,-0.8 7.2,1.7 0,0 0.1,-0.1 0.1,-0.1 -2.4,-0.1 -5.3,1.8 -7.2,-1.3 z"
         id="path70"
         inkscape:connector-curvature="0"
         style="fill:#c2c2c2" /><path
         class="st24"
         d="m 389,297.1 c 0.3,-0.7 0.6,-1.3 1,-2 1.4,0.2 2.8,0.2 3.7,-1.1 0.6,-0.4 1.1,-0.3 1.5,0.2 -1.3,2.4 -3.3,3.7 -6.2,2.9 z"
         id="path72"
         inkscape:connector-curvature="0"
         style="fill:#e3e3e3" /><path
         class="st25"
         d="m 395.3,294.1 c -0.5,-0.1 -1,-0.1 -1.5,-0.2 0.4,-1.1 -0.7,-2.9 1.5,-3 0.6,0 1.5,0.3 1.6,0.7 0.6,1.4 -0.6,2 -1.6,2.5 z"
         id="path74"
         inkscape:connector-curvature="0"
         style="fill:#f6f6f6" /><path
         class="st26"
         d="m 397.9,278.9 c -1.1,-0.5 -1.8,-0.8 -1.8,-1.8 0,-1 0.8,-1.6 1.5,-1.4 0.6,0.1 1.4,1 1.4,1.6 0.2,0.4 -0.7,1.1 -1.1,1.6 z"
         id="path76"
         inkscape:connector-curvature="0"
         style="fill:#d7d7d7" /><path
         class="st4"
         d="m 431,237 c -0.7,0 -1.5,-0.1 -2.2,-0.1 0.1,-1 0.1,-1.9 0.2,-2.9 0.6,-0.3 1.3,-0.7 1.9,-1 1.3,1.3 1.3,2.6 0.1,4 z"
         id="path78"
         inkscape:connector-curvature="0"
         style="fill:#fafafa" /><path
         class="st27"
         d="m 387.4,288.6 c 1,0.1 2.1,0.1 3.9,0.2 -1.8,1.6 -2.9,1.2 -3.9,-0.2 z"
         id="path80"
         inkscape:connector-curvature="0"
         style="fill:#3a3a3a" /><path
         class="st28"
         d="m 394.2,222.8 c 0.3,0.4 0.6,0.7 0.8,1.1 -0.3,1.1 -0.4,2.6 -1.1,3.1 -1.3,1 -0.7,-0.6 -0.9,-1 -0.3,-0.2 -0.4,-0.4 -0.2,-0.7 0.1,-1.1 0.3,-2 1.4,-2.5 z"
         id="path82"
         inkscape:connector-curvature="0"
         style="fill:#6b6b6b" /><path
         class="st4"
         d="m 439.7,222 c -1.6,-0.2 -3.4,0.6 -4.7,-1 1.6,0.1 3.4,-0.5 4.7,1 z"
         id="path84"
         inkscape:connector-curvature="0"
         style="fill:#fafafa" /><path
         class="st29"
         d="m 391,234.9 c 0.6,-0.7 1.1,-1.3 1.7,-2 0.5,0.1 1,0.1 1.5,0.2 -0.8,1.2 -1.9,2.2 -3.2,2.9 -0.3,-0.2 -0.4,-0.5 -0.3,-0.7 0.1,-0.3 0.2,-0.4 0.3,-0.4 z"
         id="path86"
         inkscape:connector-curvature="0"
         style="fill:#1f1f1f" /><path
         d="m 391,234.9 c 0,0.4 0,0.7 0,1.1 -1.4,1.6 -2.8,3.2 -4.3,4.8 -4.9,5.1 -10.1,4.6 -14.1,-1.3 -2.5,-3.8 -3.9,-8.1 -5,-12.4 -1.2,-4.9 -4.1,-7.8 -8.8,-9.1 -4.4,-1.2 -6.8,-3.4 -7,-8.6 -0.1,-3.4 1.2,-8 -3.2,-10.5 -1.1,-0.6 -0.4,-2.2 0.1,-3.2 1,-2.1 2.1,-4 3.2,-6 1.1,0.4 2.3,0.7 2.3,2.2 -0.6,0.5 -1.1,1.1 -1.1,1.8 0.1,-0.7 0.6,-1.3 1.1,-1.8 1.1,0 1.5,0.9 1.8,1.8 0.4,1.3 -0.1,2.8 0.8,4 0.7,-0.2 1.2,-0.8 1.9,-1.1 2.5,-2.7 5.2,-5 9.2,-4.7 0.9,0.1 1.5,-0.6 1.8,-1.4 0.1,-0.2 0.3,-0.3 0.4,-0.5 3.2,-0.5 6,0.6 8.1,3 2.1,2.4 3.3,1.3 4.5,-0.7 2.1,-3.7 2.3,-7.9 3.6,-11.9 0.6,-2.1 -1.6,-3.3 -3.3,-3.8 -2.8,-0.7 -5.6,0.9 -6.4,3.2 -0.9,2.6 -2,3.1 -4.2,2.7 -2.3,-0.4 -3.9,-1.7 -4.3,-4.2 -0.6,-3.4 -0.4,-6.8 0.7,-9.8 1.7,-4.6 0.2,-8 -3,-11 -1,-0.9 -2.4,-1.7 -0.9,-3.1 3.1,-2.8 1.1,-4.6 -0.8,-6.9 -6.4,-7.5 -7.4,-13.4 -4,-19.4 1.8,-3.2 3.7,-3 6.2,-1.2 -0.3,0.5 -0.7,0.7 -1.2,1 0.3,0.2 0.6,0.2 1,0.2 0.6,0.1 1.2,0.4 1.6,0.8 0.8,0.2 -0.4,3.7 2.1,1.3 1.3,-1.3 2.8,-2 4.7,-1.6 0.6,0.4 1.3,1.1 1,1.6 -1.8,2.8 -0.1,5 1.2,7.4 1.4,-1.8 -0.5,-5 2.4,-6.1 1.2,-0.5 2.2,0.4 3,1.3 1.4,2.7 2.2,5.6 5.1,7.6 2.4,1.7 1.7,5.1 0.9,7.9 -2.1,1.7 1.7,1.3 0.9,2.6 0,1.8 -0.5,3.4 -2.1,4.4 -1.6,1 -3.7,0.6 -5.1,2.2 -1.4,2.8 -1.6,6.1 -3.4,9.3 3.2,-2.8 1.8,-6.8 3.7,-9.5 2.2,-1.5 3.8,-1.3 4.1,1.6 0.2,2.1 0.4,4.2 1.8,6.3 -1.9,-3.1 -2.2,-6.1 -1.2,-9.3 3.5,-1.9 4.4,-1.3 4.8,2.9 0.1,2.2 0.7,4.2 -0.2,6.6 -2.2,5.5 3.3,7.2 6.2,9.2 2.9,2.1 1.4,3.2 0.1,4.1 -3.1,2.1 -4.8,5.3 -7.1,8 -0.2,0.6 -0.8,0.8 -1.2,1.1 -2.2,2.8 -4.1,5.7 -3.9,9.4 0.1,2.1 0.4,4 3.3,4.1 1.1,0 2.5,0.1 2.7,1.7 0.2,1.3 -0.8,2.1 -1.5,3 -1.1,1.5 -7.6,0.9 -2.2,5.2 -2.8,2.1 -1.6,6.4 -4.6,8.2 -2.1,1.3 -2.4,2.9 -1.6,5 1.2,3.2 4.1,5.3 4.3,9.4 -0.2,3.9 3,1.7 5.1,1.1 z"
         id="path88"
         inkscape:connector-curvature="0" /><path
         class="st30"
         d="m 388,151.1 c 0.2,-0.9 -2.1,-0.7 -0.9,-2.1 2.5,-1.9 5,-3.6 8.3,-2.5 1.3,0.8 1.3,2.3 1.7,4 1.3,-2.4 -0.8,-2.6 -1.2,-3.6 -0.1,-1.5 1.1,-2 2.1,-2.5 4,-1 6.2,1.6 5.5,4.6 -0.9,4.1 2.4,6.2 3.1,9.4 0.4,2 1.8,-0.3 2.8,-0.7 0.4,-0.3 1,-0.4 1.1,-0.8 0,-0.2 -0.7,0 -1,-0.1 -0.6,-0.1 -1.2,-0.3 -1.8,-0.6 -0.9,-1 -1.5,-2.2 -2.5,-3 -1.5,-1.1 -1.8,-2.4 -0.1,-3.6 2.9,-1.9 1.6,-3.5 -0.3,-4.9 -2.7,-2.1 -5.9,-3.6 -5.3,-8.1 0.3,-2.2 -2.7,-1.8 -4.3,-2.3 -0.5,-0.1 -0.9,-0.2 -1.4,-0.3 -2,-0.7 -3.6,-1.9 -5.4,-3.2 -1,-0.7 -2,3 -4.3,1.9 -3.4,-1.1 -7.2,-1.2 -9.8,-4.1 -0.9,-0.5 -1.5,-1.2 -1.7,-2.2 0,-0.5 0.2,-0.9 0.6,-1.3 7.7,2.7 15.9,-1.4 23.7,1.9 4,1.7 6.6,5.5 10.8,6.6 0.1,0 0.3,0.3 0.3,0.4 -2,5.9 3.8,7.9 5.9,11.7 2,3.7 0.7,8.2 3.5,11.7 0.2,0.2 0.2,0.8 0.1,1 -5.4,6.3 1.6,6.1 4.2,7.3 3.4,1.6 6.7,3.3 10.5,4.2 3.8,1 6.2,4.3 6.3,8.7 -0.9,2.7 0.7,5.7 -1.1,8.3 -0.7,-4.7 -1.5,-9.4 -6.1,-12.3 -0.7,-0.2 -1.6,0.1 -2.1,-0.7 -1.1,-1.8 -3,-2.5 -4.8,-3.3 -4.6,-1.9 -9.5,-3.2 -12.8,-7.7 -0.3,0.4 -0.6,0.8 -0.9,1.3 0.5,1.7 1,3.3 1.6,5 1.1,3.2 -0.9,4.3 -3.3,4.8 -3.4,0.8 -2.7,-1.8 -2.8,-3.7 -0.2,-2.7 -3.8,-4.8 -6.9,-4 -1.2,0.3 -2.3,1.1 -3.6,1.6 -0.8,-3.8 0.6,-7.6 -1.4,-11 -3.3,-1 -4.4,-3.8 -6.3,-5.8 z"
         id="path90"
         inkscape:connector-curvature="0"
         style="fill:#010101" /><path
         class="st31"
         d="m 355.1,194.3 c -0.3,-0.8 -0.3,-1.8 -1.2,-2.2 v 0 c -0.7,-0.8 -1.4,-1.6 -2.1,-2.5 1,-1.3 2.4,-0.8 3.7,-0.7 3,-0.7 6,-0.4 9.1,-0.2 1.1,1.2 0.2,1.7 -0.7,2.2 -1.5,0.7 -2.9,1.6 -4,2.8 -0.9,1 -2,0.4 -3,0.3 -0.6,0.1 -1.1,0.3 -1.8,0.3 z"
         id="path92"
         inkscape:connector-curvature="0"
         style="fill:#1b1b1b" /><path
         class="st18"
         d="m 373,126 c 0.4,0.6 0.7,1.2 1.1,1.8 0.4,0.5 0.4,1 -0.1,1.4 -1.3,0.5 -3,0.7 -3.8,1.7 -1,1.1 -0.8,3.6 -3.3,2.2 -2.1,-1.2 0.4,-2.6 0,-3.9 -0.6,-1.2 0.5,-1.6 1.1,-2.2 0.3,0 0.6,0 0.9,0 1.5,0.1 2.3,-2.4 4.1,-1 z"
         id="path94"
         inkscape:connector-curvature="0"
         style="fill:#f0f0f0" /><path
         class="st31"
         d="m 365,189.8 c -3,-1.6 -6.3,-0.4 -9.4,-0.9 4.9,-0.8 9.8,-1.8 14.4,1.1 0,0 0.1,0 0.1,0 -1.8,1.3 -3.5,1.5 -5.1,-0.2 z"
         id="path96"
         inkscape:connector-curvature="0"
         style="fill:#1b1b1b" /><path
         class="st32"
         d="m 373,126 c -1.8,-1.2 -2.1,3.3 -4.1,1 0.7,-2.2 2.4,-2.2 4.2,-1.8 0.1,0.2 0.1,0.5 -0.1,0.8 z"
         id="path98"
         inkscape:connector-curvature="0"
         style="fill:#585858" /><path
         class="st33"
         d="m 368,127 c -0.4,0.7 -0.7,1.4 -1.1,2.2 -0.6,-0.1 -1.3,-0.2 -1.9,-0.2 -0.6,-0.5 -1.7,-0.1 -2.1,-1 0.7,-1.5 2,-0.8 3.1,-1 0.6,0 1.3,0 2,0 z"
         id="path100"
         inkscape:connector-curvature="0"
         style="fill:#b4b4b4" /><path
         class="st34"
         d="m 423,192 c -0.7,-1 -1.4,-2 -2.1,-3 -0.6,-3.3 -4.4,-4.5 -5.6,-8.3 3.6,1.2 6.8,1.7 7.7,-2.8 1.8,0.8 0.4,1.7 0.3,2.7 -0.9,5.3 0.4,6.8 5.6,6.4 0.7,-0.5 1,-1.7 2.3,-1 1,2.8 0.9,3.1 -1.4,2.9 -4,-0.5 -5.6,0.9 -4.6,4.9 0.4,1.1 -0.1,1.4 -1.1,1.2 -0.4,-1 -0.7,-2 -1.1,-3 z"
         id="path102"
         inkscape:connector-curvature="0"
         style="fill:#0a0a0a" /><path
         class="st35"
         d="m 406,190.1 c -1.7,0.1 -1.4,-1 -1.4,-2 0.1,-2 0.1,-4 -1,-5.8 -0.5,-0.7 -2,-1 -1.2,-2.3 0.7,-1.1 1.9,-1.5 3.1,-1.3 2.7,0.4 5.9,2.5 5.1,4.3 -1,2.4 -1.5,5.9 -4.6,7.1 z"
         id="path104"
         inkscape:connector-curvature="0"
         style="fill:#060606" /><path
         class="st8"
         d="m 388,151.1 c 3.9,0.1 4.1,3.8 5.9,6 -1,0.5 -1.1,2.1 -2.6,2 -0.9,-1.7 -1.4,-3.8 -4,-2.9 -1.1,0.4 -1.4,-0.1 -1.2,-1.1 0.6,-1.4 1.2,-2.7 1.9,-4 z"
         id="path106"
         inkscape:connector-curvature="0"
         style="fill:#efefef" /><path
         class="st36"
         d="m 428.9,174 c 0.8,-0.1 1.7,-0.4 2.1,0.7 -0.7,1.2 0.4,3.6 -1.7,3.7 -0.6,0 -3.6,2.1 -3.3,-1.4 1.3,-0.7 1.2,-2.7 2.9,-3 z"
         id="path108"
         inkscape:connector-curvature="0"
         style="fill:#393939" /><path
         class="st37"
         d="m 422.7,172.5 c 0.8,2.3 -0.6,3.7 -2.1,5 -0.5,0.4 -1.3,-0.2 -1.2,-1 0.2,-1.9 0.8,-3.7 3.3,-4 z"
         id="path110"
         inkscape:connector-curvature="0"
         style="fill:#292929" /><path
         class="st38"
         d="m 394.2,222.8 c -0.1,1 -0.4,1.9 -1.4,2.4 -1.5,0 -2.3,-1 -1.7,-2.3 0.7,-1.5 2,-1.3 3.1,-0.1 z"
         id="path112"
         inkscape:connector-curvature="0"
         style="fill:#232323" /><path
         class="st35"
         d="m 389,188 c 0.4,-0.4 0.8,-0.8 1.2,-1.1 0.9,0.2 1.9,0.4 2.8,0.6 -0.2,0.4 -0.2,1 -0.5,1.2 -1.3,0.9 -2.4,0 -3.5,-0.7 z"
         id="path114"
         inkscape:connector-curvature="0"
         style="fill:#060606" /><path
         d="m 399,213 c 0.2,1.9 -1.3,2 -2.5,1.9 -1,-0.1 -0.7,-1.2 -0.4,-1.9 0.9,0 1.9,0 2.9,0 z"
         id="path116"
         inkscape:connector-curvature="0" /><path
         class="st39"
         d="m 431,237 c 0,-1.3 -0.1,-2.7 -0.1,-4 2.8,-4.7 -2.4,-7.6 -2.6,-11.8 -2.3,6.4 -8.8,7.5 -13.2,11.2 -0.1,-0.5 -0.1,-1 -0.2,-1.5 0.2,-2.6 0.1,-5.5 4.1,-4.9 1.5,-2.1 -0.4,-4.8 1.1,-6.9 v 0 c 2.1,-0.3 1.1,1.4 1.4,2.3 0.5,1.2 -1.1,3.1 1.4,3.5 0.5,-1.4 1.6,-2.8 1.5,-4.1 -0.5,-6.3 0.3,-12.4 1.5,-18.4 0,-1.2 -1.3,-2.8 1,-3.2 1,3.4 0.6,7.2 4.1,9.7 2,1.4 1.2,4.2 -1.2,4.9 -1.1,0.3 -0.9,1.1 -0.7,1.4 1.2,2.5 1.2,5.5 3.8,7.2 1.1,1.2 2.3,2.4 3.1,3.7 0.9,1.5 3,3.3 -0.8,4 -2.4,0.4 -0.2,2.3 -0.7,2.9 -0.9,1.3 1.6,6.1 -3.5,4 z"
         id="path118"
         inkscape:connector-curvature="0"
         style="fill:#070707" /><path
         class="st40"
         d="m 408.2,213.8 c -0.9,0.2 -1.2,-0.4 -1.2,-1.1 0.1,-2.4 2.3,-1.9 3.6,-2.6 0.7,-0.4 1.9,0.8 1.6,1.3 -0.7,1.7 -2.7,1.6 -4,2.4 z"
         id="path120"
         inkscape:connector-curvature="0"
         style="fill:#1e1e1e" /><path
         class="st41"
         d="m 426.9,199.1 c -1.3,0.8 -0.4,2.2 -1,3.2 -0.6,-2.4 -1.2,-4.8 -1.7,-7.3 0.4,-0.4 0.7,-0.8 1.1,-1.2 1,1.5 1.2,3.4 1.6,5.3 z"
         id="path122"
         inkscape:connector-curvature="0"
         style="fill:#3f3f3f" /><path
         class="st42"
         d="m 420,219.1 c -0.1,2.3 -0.1,4.6 -0.2,6.9 0,0.1 -0.3,0.2 -0.4,0.2 -0.2,0 -0.3,-0.1 -0.4,-0.2 0.8,-2.3 -1,-4.9 1,-6.9 z"
         id="path124"
         inkscape:connector-curvature="0"
         style="fill:#1d1d1d" /><path
         class="st42"
         d="m 421.1,222.2 c -0.2,-1.1 0.1,-2.4 -1.1,-3.1 3.3,-0.7 1.4,1.8 1.8,2.9 -0.1,0.4 -0.3,0.4 -0.7,0.2 z"
         id="path126"
         inkscape:connector-curvature="0"
         style="fill:#1d1d1d" /><path
         class="st31"
         d="m 413.4,215.5 c 1.8,-1.5 3.2,-0.8 4.9,-0.3 -1.7,1.7 -3.1,1.5 -4.9,0.3 z"
         id="path128"
         inkscape:connector-curvature="0"
         style="fill:#1b1b1b" /><path
         class="st43"
         d="m 421.1,222.2 c 0.2,-0.1 0.5,-0.2 0.7,-0.2 0.6,0.9 -0.6,2.4 1,2.9 -0.2,0.8 -1.2,1.1 -1.4,0.7 -0.3,-1.1 -0.2,-2.3 -0.3,-3.4 z"
         id="path130"
         inkscape:connector-curvature="0"
         style="fill:#545454" /><path
         class="st44"
         d="m 431.1,185.9 c -0.8,0.3 -1.5,0.7 -2.3,1 0.5,-1.4 -0.7,-2 -1.4,-2.9 -0.8,-1 -2.2,-2 -0.8,-3.4 1.3,-1.3 2.8,-0.7 4,0.3 1.2,1 3,2 0.4,3.5 -0.1,0.2 0.1,1 0.1,1.5 z"
         id="path132"
         inkscape:connector-curvature="0"
         style="fill:#161616" /><path
         class="st40"
         d="m 433.9,201.7 c 0.9,1.1 1.9,1.9 2.1,2.8 0.1,0.9 -1,1.6 -2,1.4 -1,-0.2 -1.8,-0.9 -1.9,-1.9 -0.1,-1.3 1.2,-1.3 1.8,-2.3 z"
         id="path134"
         inkscape:connector-curvature="0"
         style="fill:#1e1e1e" /><path
         class="st10"
         d="m 398.3,145.1 c -0.4,1 -2.2,0.5 -2.2,2 l 0.1,-0.1 c -3.4,-1 -5.9,2 -9.1,2 -0.5,-3.3 2.5,-7.9 -3.9,-9.1 -1.1,-0.2 -1.5,-4.4 -2.2,-6.7 0.3,-2.8 2.1,-1.4 3.5,-1.3 1.8,0.1 2.3,-0.5 1.6,-2.2 -0.4,-1.2 0.7,-1.7 1.7,-2 1.6,-0.5 1.3,0.7 1.5,1.6 0.4,2.6 3.1,2.6 4.7,3.8 1.2,0.9 0.7,1.9 -0.2,2.3 -2.4,1 -4,2 -3.1,5.1 0.9,3 3.1,3 5.5,3 0.7,0.2 1.6,0.7 2.1,1.6 z"
         id="path136"
         inkscape:connector-curvature="0"
         style="fill:#f4f4f4" /><path
         class="st45"
         d="m 382.9,149 c 0.2,0.6 0.6,1.7 0.6,1.7 -4.5,2.1 -6.5,6.7 -10,10.5 -1.1,-5.1 1.7,-10 -1.4,-14.2 0.3,-0.6 0.7,-0.6 1.1,-0.1 2,0.1 3.4,1.4 5,2.4 1.8,1.2 2.6,0.4 3.1,-1.3 0.8,-0.1 1.3,0.2 1.6,1 z"
         id="path138"
         inkscape:connector-curvature="0"
         style="fill:#f3f3f3" /><path
         class="st46"
         d="m 371.1,222 c -0.3,-1.4 0.2,-3 -1,-4.2 -1.4,-1.4 -0.9,-2.8 0.2,-3.9 1.3,-1.5 3,-1.1 4.5,-0.2 1.5,0.8 2.7,2.1 3.1,3.7 0.3,1.6 2.4,5.1 -2.4,3.1 -1.7,-0.7 -2.2,1 -3.2,1.7 -0.4,0.4 -0.8,0.4 -1.2,-0.2 z"
         id="path140"
         inkscape:connector-curvature="0"
         style="fill:#f7f7f7" /><path
         class="st47"
         d="m 384.4,131.9 c -1.2,0.2 -2.7,-0.1 -3.5,1.3 -3.2,-1.7 -3.6,0.2 -2.7,2.4 1.7,4 -0.7,4 -3.4,4.2 -0.8,-1.6 1.1,-2.9 0,-4.4 -1.3,-1 -2.5,1.3 -3.9,0.3 -0.9,-3.1 5.6,-2.7 3.1,-6.5 0,-0.5 0.1,-0.9 0.1,-1.4 2.9,2.8 6.8,2.7 10.3,4.1 z"
         id="path142"
         inkscape:connector-curvature="0"
         style="fill:#ececec" /><path
         class="st48"
         d="m 376.3,204.3 c -0.1,-1.8 1.3,-2.8 2.3,-4.1 0.5,2.3 4.3,1.9 4,4.3 -0.3,2.4 -1.1,6.2 -3.7,6.1 -2.9,-0.2 -1.6,-4.1 -2.6,-6.3 z"
         id="path144"
         inkscape:connector-curvature="0"
         style="fill:#e6e6e6" /><path
         class="st15"
         d="m 365,189.8 c 1.7,0.1 3.4,0.1 5.1,0.2 0.8,2.2 2.6,5.1 -2.4,3.3 -4,-1.4 -5.8,2.8 -8.8,3.8 -0.8,-1 -0.9,-2 -0.2,-3.1 1.1,-3 3.5,-3.9 6.3,-4.2 z"
         id="path146"
         inkscape:connector-curvature="0"
         style="fill:#e1e1e1" /><path
         class="st49"
         d="m 365,196.1 c 0.9,-1.4 2.4,-1.5 3.4,-0.6 2.1,2 4.2,2.9 6.7,-0.2 0.5,3.3 0.5,5.6 -1.7,6.7 -2.3,1.2 -3.4,-1.4 -4.9,-2.4 -1.2,-0.8 -1.8,-2.5 -3.5,-2.4 -0.3,-0.2 -0.4,-0.5 -0.3,-0.7 0.1,-0.3 0.2,-0.4 0.3,-0.4 z"
         id="path148"
         inkscape:connector-curvature="0"
         style="fill:#f1f1f1" /><path
         class="st50"
         d="m 382,158.1 c 0,4.9 -0.3,9.6 -6.9,12.5 2.1,-5.1 3.9,-9.4 5.7,-13.6 1.2,-0.5 1.4,0.1 1.2,1.1 z"
         id="path150"
         inkscape:connector-curvature="0"
         style="fill:#eaeaea" /><path
         class="st51"
         d="m 364.8,200 c 1,2.5 -0.6,4.4 -1.8,6.2 -0.7,1.1 -2.1,0.8 -3.2,0.6 -1.3,-0.2 -1,-1.4 -1.1,-2.3 -0.1,-1.4 0.5,-2 2,-2.2 1.3,-0.2 3.7,0.6 3.1,-2.3 0.3,-0.3 0.7,-0.3 1,0 z"
         id="path152"
         inkscape:connector-curvature="0"
         style="fill:#d3d3d3" /><path
         class="st50"
         d="m 382,158.1 c -0.4,-0.4 -0.8,-0.8 -1.2,-1.2 1.7,-0.6 3.4,-1.3 5.2,-1.9 0.4,0.4 0.8,0.7 1.2,1.1 -1,3.6 1.1,7.1 0.9,11.4 -2.4,-2.8 -3.2,-5.5 -3.2,-8.2 0.1,-3.4 -1.5,-1.7 -2.9,-1.2 z"
         id="path154"
         inkscape:connector-curvature="0"
         style="fill:#eaeaea" /><path
         class="st52"
         d="m 369,145 c -1.5,-1.3 -0.5,-4.7 -4,-4.3 -0.8,0.1 -1.1,-1.2 -0.8,-2 0.2,-0.5 0.9,-0.9 1.5,-1.1 1.2,-0.2 2.4,-0.1 2.9,1.2 0.5,1.4 0.9,2.8 1.3,4.2 -0.5,0.6 -0.1,1.5 -0.9,2 z"
         id="path156"
         inkscape:connector-curvature="0"
         style="fill:#d6d6d6" /><path
         class="st53"
         d="m 385.1,172.7 c -2,-0.2 -4.1,2.2 -5.9,0.1 -0.8,-0.9 0.7,-1.5 1.5,-2.1 2.6,-1.8 3,1.1 4.4,2 z"
         id="path158"
         inkscape:connector-curvature="0"
         style="fill:#cecece" /><path
         class="st13"
         d="m 355.1,194.3 c 0.9,-0.5 0.3,-2.2 1.8,-2.2 1.5,2.6 0.8,5.3 0.1,8 -3.8,-0.9 -1.4,-3.9 -1.9,-5.8 z"
         id="path160"
         inkscape:connector-curvature="0"
         style="fill:#e8e8e8" /><path
         class="st54"
         d="m 365.3,215.7 c -1.4,-2.1 -0.9,-4 0.5,-5.6 0.2,-0.3 1.7,-0.1 1.8,0.2 0.9,2.4 -1.7,3.5 -2.3,5.4 z"
         id="path162"
         inkscape:connector-curvature="0"
         style="fill:#e0e0e0" /><path
         class="st55"
         d="m 373.9,207.6 c -0.4,0.2 -0.7,0.6 -0.9,0.5 -1.7,-0.6 -3.8,1.9 -5.3,-0.5 -0.3,-0.5 -0.9,-1.4 0,-1.5 2.2,-0.4 4.6,-0.8 6.2,1.5 z"
         id="path164"
         inkscape:connector-curvature="0"
         style="fill:#eeeeee" /><path
         class="st31"
         d="m 357.1,200 c 0,-2.7 -0.1,-5.3 -0.1,-8 0.6,0.6 1.2,1.3 1.8,1.9 0.1,1 0.1,2.1 0.2,3.1 -0.7,1 -1.3,2 -1.9,3 z"
         id="path166"
         inkscape:connector-curvature="0"
         style="fill:#1b1b1b" /><path
         class="st26"
         d="m 353.9,192 c 0.3,2.1 -0.3,3.8 -2.9,5.4 0.8,-2.4 -0.4,-4.9 2.9,-5.4 0.1,0.1 0,0 0,0 z"
         id="path168"
         inkscape:connector-curvature="0"
         style="fill:#d7d7d7" /><path
         class="st56"
         d="m 375.7,171.3 c -0.6,1.9 -1.8,2.7 -3.4,2.4 -0.3,-0.1 -0.8,-0.9 -0.7,-1.1 0.8,-1.2 2.1,-1.9 4.1,-1.3 z"
         id="path170"
         inkscape:connector-curvature="0"
         style="fill:#b9b9b9" /><path
         class="st57"
         d="m 369,145 c 0,-0.8 0.1,-1.5 0.9,-1.9 1.5,1 3.7,1.4 3.3,3.9 -0.4,0 -0.7,0.1 -1.1,0.1 -1.1,-0.8 -2.1,-1.5 -3.1,-2.1 z"
         id="path172"
         inkscape:connector-curvature="0"
         style="fill:#dedede" /><path
         class="st58"
         d="m 382.9,149 c -0.5,-0.3 -1.1,-0.6 -1.6,-0.9 0.4,-1.4 0.5,-3 2.5,-3.1 1.1,1.7 -0.3,2.8 -0.9,4 z"
         id="path174"
         inkscape:connector-curvature="0"
         style="fill:#d9d9d9" /><path
         class="st21"
         d="m 379.6,140.8 c 1,0.2 1.6,0.5 1.2,1.3 -0.4,0.8 -0.6,1.9 -1.8,2 -0.9,0.1 -1,-0.7 -0.9,-1.3 0.2,-1 0.7,-1.8 1.5,-2 z"
         id="path176"
         inkscape:connector-curvature="0"
         style="fill:#d4d4d4" /><path
         class="st59"
         d="m 371.1,222 c 0.4,0.1 0.8,0.1 1.2,0.2 0.3,1.4 2.4,0.1 2.5,1.6 0,0.3 -1,1 -1.5,1 -2,0.2 -2.6,-0.9 -2.2,-2.8 z"
         id="path178"
         inkscape:connector-curvature="0"
         style="fill:#ededed" /><path
         class="st56"
         d="m 364.8,200 c -0.3,0 -0.7,0 -1,0 -1.4,-1.9 -0.2,-3 1.2,-4 0,0.3 0,0.7 0,1 -0.1,1.1 -0.1,2 -0.2,3 z"
         id="path180"
         inkscape:connector-curvature="0"
         style="fill:#b9b9b9" /><path
         class="st51"
         d="m 362.9,127.9 c 0.9,0 1.7,0 2.1,1 -0.8,0.4 -1.5,1.7 -2.5,1 -0.9,-0.6 -0.1,-1.3 0.4,-2 z"
         id="path182"
         inkscape:connector-curvature="0"
         style="fill:#d3d3d3" /><path
         class="st7"
         d="m 398.3,145.1 c -0.9,-0.1 -1.7,-0.2 -2.3,-1.1 -2,-0.8 -2.8,-2.2 -2.1,-4.3 0.7,-2.2 0.7,-4.5 1.1,-6.7 1.6,0.3 3.2,0.6 4.8,0.9 1.8,0.3 2.3,1.6 1.2,2.8 -2.7,2.8 -0.1,3.8 1.6,5.1 0.5,0.4 1.1,0.7 1.6,1.1 1.9,1.3 4,2.6 4.5,5 1.1,4.3 -4.3,0.5 -4.3,3.8 2.6,0 3.2,2 3.4,4.3 0.5,0.9 2.8,0.1 2.1,2.2 -0.6,1 -1.1,2 -1.7,3 -0.6,1 -1.6,1.1 -2.6,0.9 -1.4,-0.2 -1.2,-1.4 -1.1,-2.3 0.5,-4.3 -3.3,-7.6 -2.3,-12.1 0.6,-2.3 -1.5,-3.4 -3.9,-2.6 z"
         id="path184"
         inkscape:connector-curvature="0"
         style="fill:#f8f8f8" /><path
         class="st35"
         d="m 395.1,133 c 1,1.9 1.8,4.3 0.4,5.9 -1.9,2.2 0,3.4 0.6,5.1 -3.7,2.6 -5.7,1.2 -6.6,-2.8 -0.4,-1.9 -0.9,-3.8 -1.3,-5.4 1.5,-2.2 5,0.8 5.7,-2.7 0.3,0 0.8,-0.1 1.2,-0.1 z"
         id="path186"
         inkscape:connector-curvature="0"
         style="fill:#060606" /><path
         class="st16"
         d="m 396,147.1 c 1.2,0.7 3.5,-1.1 3.7,0.9 0.3,2.6 -2,3.8 -4.2,5.1 -1.4,-2.4 1.5,-4.1 0.5,-6.1 0.2,0 0,0.1 0,0.1 z"
         id="path188"
         inkscape:connector-curvature="0"
         style="fill:#e2e2e2" /><path
         class="st60"
         d="m 410.1,158.2 c -0.7,-0.7 -1.4,-1.5 -2.1,-2.2 0.6,0 1.3,-0.1 1.9,-0.1 1.2,0 2.9,-2.2 3.4,0.5 0.7,3.2 -2.3,0.7 -3.2,1.8 z"
         id="path190"
         inkscape:connector-curvature="0"
         style="fill:#dbdbdb" /></g></g></svg>