<?xml version="1.0" encoding="UTF-8" standalone="no"?>
<!-- Generator: Adobe Illustrator 22.0.0, SVG Export Plug-In . SVG Version: 6.00 Build 0)  -->

<svg
   xmlns:dc="http://purl.org/dc/elements/1.1/"
   xmlns:cc="http://creativecommons.org/ns#"
   xmlns:rdf="http://www.w3.org/1999/02/22-rdf-syntax-ns#"
   xmlns:svg="http://www.w3.org/2000/svg"
   xmlns="http://www.w3.org/2000/svg"
   xmlns:sodipodi="http://sodipodi.sourceforge.net/DTD/sodipodi-0.dtd"
   xmlns:inkscape="http://www.inkscape.org/namespaces/inkscape"
   version="1.1"
   id="Layer_1"
   x="0px"
   y="0px"
   viewBox="0 0 1366 768"
   style="enable-background:new 0 0 1366 768;"
   xml:space="preserve"
   sodipodi:docname="weeman-vector.svg"
   inkscape:version="0.92.0 r15299"><metadata
     id="metadata201"><rdf:RDF><cc:Work
         rdf:about=""><dc:format>image/svg+xml</dc:format><dc:type
           rdf:resource="http://purl.org/dc/dcmitype/StillImage" /></cc:Work></rdf:RDF></metadata><defs
     id="defs199" /><sodipodi:namedview
     pagecolor="#ffffff"
     bordercolor="#666666"
     borderopacity="1"
     objecttolerance="10"
     gridtolerance="10"
     guidetolerance="10"
     inkscape:pageopacity="0"
     inkscape:pageshadow="2"
     inkscape:window-width="1920"
     inkscape:window-height="1017"
     id="namedview197"
     showgrid="false"
     inkscape:zoom="0.2079063"
     inkscape:cx="683"
     inkscape:cy="384"
     inkscape:window-x="-8"
     inkscape:window-y="-8"
     inkscape:window-maximized="1"
     inkscape:current-layer="Layer_1" /><style
     type="text/css"
     id="style2">
	.st0{fill:#FEFEFE;}
	.st1{fill:#FDFDFD;}
	.st2{fill:#FCFCFC;}
	.st3{fill:#FBFBFB;}
	.st4{fill:#FAFAFA;}
	.st5{fill:#F9F9F9;}
	.st6{fill:#0B0B0B;}
	.st7{fill:#F8F8F8;}
	.st8{fill:#EFEFEF;}
	.st9{fill:#101010;}
	.st10{fill:#F4F4F4;}
	.st11{fill:#E7E7E7;}
	.st12{fill:#EBEBEB;}
	.st13{fill:#E8E8E8;}
	.st14{fill:#2A2A2A;}
	.st15{fill:#E1E1E1;}
	.st16{fill:#E2E2E2;}
	.st17{fill:#DADADA;}
	.st18{fill:#F0F0F0;}
	.st19{fill:#222222;}
	.st20{fill:#DFDFDF;}
	.st21{fill:#D4D4D4;}
	.st22{fill:#AEAEAE;}
	.st23{fill:#C2C2C2;}
	.st24{fill:#E3E3E3;}
	.st25{fill:#F6F6F6;}
	.st26{fill:#D7D7D7;}
	.st27{fill:#3A3A3A;}
	.st28{fill:#6B6B6B;}
	.st29{fill:#1F1F1F;}
	.st30{fill:#010101;}
	.st31{fill:#1B1B1B;}
	.st32{fill:#585858;}
	.st33{fill:#B4B4B4;}
	.st34{fill:#0A0A0A;}
	.st35{fill:#060606;}
	.st36{fill:#393939;}
	.st37{fill:#292929;}
	.st38{fill:#232323;}
	.st39{fill:#070707;}
	.st40{fill:#1E1E1E;}
	.st41{fill:#3F3F3F;}
	.st42{fill:#1D1D1D;}
	.st43{fill:#545454;}
	.st44{fill:#161616;}
	.st45{fill:#F3F3F3;}
	.st46{fill:#F7F7F7;}
	.st47{fill:#ECECEC;}
	.st48{fill:#E6E6E6;}
	.st49{fill:#F1F1F1;}
	.st50{fill:#EAEAEA;}
	.st51{fill:#D3D3D3;}
	.st52{fill:#D6D6D6;}
	.st53{fill:#CECECE;}
	.st54{fill:#E0E0E0;}
	.st55{fill:#EEEEEE;}
	.st56{fill:#B9B9B9;}
	.st57{fill:#DEDEDE;}
	.st58{fill:#D9D9D9;}
	.st59{fill:#EDEDED;}
	.st60{fill:#DBDBDB;}
</style><g
     id="g194"><g
       id="g192"><path
         d="M532.1,248.4c-0.1,37-6.7,67.8-22.5,96.1c-16.2,29.2-39.2,50.8-71.3,61.6c-11.3,3.8-23,5.9-34.9,5.6    c-30-0.9-56.1-11.6-77.9-32.6c-25.1-24.2-39.1-54-45.5-87.8c-2.7-14.1-4.3-28.4-3.8-42.8c1.4-36.8,10.2-71.5,32.1-101.8    c17.9-24.8,41.1-42.8,71.5-49.2c34.3-7.3,65.9-0.3,93.7,21.6c30.5,23.9,46.8,56.2,54.5,93.5C530.8,225.9,532.4,239.4,532.1,248.4z    "
         id="path6" /><path
         class="st0"
         d="M452.7,233.1c-2.1-2.1-2.3-5.1-3.6-7.6c-1.3-2.4-2.4-4.6-5.1-5.7c-1.6-0.6-3.1-2-2.8-3.8    c1.5-8.4-2.9-15.9-3.2-24c-1.2-4.1,0.3-8.4-0.9-12.5c-0.6-5.3-3.6-8.3-8.8-9.4c-3.3-0.7-6.2-2.4-9.2-3.7c-3.3-1.5-4.8-3.4-4.4-8    c0.4-4.9-0.7-10.8-4.8-15c-1.9-1.9-3-3.9-3.7-6.7c-1.2-4.7-6.1-6.4-10-7.9c-4.6-1.8-9.7-3.4-15-1.2c-2.7,1.2-5.1-0.9-7.7-1.2    c-1.7-0.3-3.1,0.4-4.5,1.2c-0.4,0.2-0.9,0.3-1.4,0.3c-0.7,0.1-1.4,0-2.2-0.2c-4.5-1.2-5.6,2-6.1,5.2c-0.8,4.8,1.3,8.7,4.2,12.4    c2.2,2.7,4.7,5.3,2.9,9.3c-0.4,1,0.1,2,0.8,2.8c3.2,3.8,3.5,8,2.3,12.6c-0.7,2.5-0.9,5.3-0.1,7.9c1,3.4,3.4,4,5.7,1.4    c1.5-1.7,3.1-3,5.3-3.6c3.3-0.9,6.7,1.6,6.4,5c-0.3,4.1-1.2,8.2-3.3,11.9c-1.4,2.4-3.3,3.8-6.1,1.5c-2.2-1.9-5-2.6-7.7-3.3    c-4.3-1.7-8.7-1.8-13.1-1c-1.3,0.4-2.8,0.4-3.9,1.4c-2.5,3-3.5,5.9-1.1,9.9c1.6,2.6,1.6,6.1,1.6,9.3c0,2.9,1.1,4.9,3.9,5.6    c7.4,2.1,11.2,7.2,12.8,14.5c0.7,3.1,1.9,6,3.8,8.6c3.8,5,7.5,5.4,11.9,1c1.4-1.4,2.8-2.8,4.3-4.2c1.2-1.3,2.6-2.1,4.2-2.6    c3.3,3.3,0.9,5.9-1.3,8c-4.8,4.6-7.2,9.7-7.2,16.5c0,5.5-2.2,10.7-4.8,15.6c-3.3,6.3-6.6,12.6-7.2,20c-0.3,3.2-3.3,5.7-3.8,9.1    c-1.3,8.7,0,17.1,3,25.2c3.1,8.5,6.3,16.9,6.3,26c0.1,8.3-1.8,10.1-9.9,10.3c-3.3,0.1-6.7,0.1-9.8,1.6c-3.3,1.7-5.1,4.5-4.6,8.1    c0.4,3.3,3.5,4,6,4.3c9.3,1,18.3,3.1,27.3,5.8c7.3,2.2,10.2-1.2,7.6-8.5c-1.4-4-1.3-7.7,0-11.6c1.6-5,2.3-10.2,2.2-15.5    c0-0.8-0.1-1.8,0.2-2.5c5-10,1.9-19.5-1.6-29c-1.3-3.5-1.7-6.5-0.4-10.4c1.7-4.8,4.9-6.3,9-7.2c3.9-0.9,6.2-0.5,8.7,4.4    c4,8,4.9,16.1,5.6,24.5c0.4,4.5,3.7,4.2,6.3,4.7c3.2,0.6,6.4,0.2,8.4-2.9c1.2-1.8-1-2.9-1.2-4.5c1.9-1.2,2.8,0.5,3.8,1.4    c10.4,9.5,23.2,13.4,36.7,15.1c1.7,0.2,3.2,0.7,4.3,2.2c2.4,3.4,0.6,14.6-2.7,16.9c-2,1.4-5,2.2-4.9,5.1c0.1,3.2,3.6,3.3,6.2,4.7    c-14.8,14.3-31.7,24.4-51.6,28.2c-42.7,8.1-76.8-7.3-103.7-40.2c-20-24.5-29.6-53.3-32.9-84.4c-3.5-32.9,0.3-64.9,13.8-95.3    c13.2-29.7,33.2-53.4,63.9-66.3c40.1-16.8,84.7-6,115.1,27.3c20.7,22.7,32.5,49.7,37.4,79.7c6.5,39.8,2.3,78.3-15.6,114.8    c-1.9,3.8-2.9,4.8-7.6,2.8c-9.9-4.3-17.3-11.7-25.2-18.2c-6.8-5.5-14.7-8.2-22.3-11.7c-1.9-0.9-3-1.5-3.1-3.7    c-0.2-3.8-0.7-7.6-1.1-11.4c-0.1-0.7-0.3-1.6,0-1.9c5.5-4.7,5.1-13.2,10.5-17.5c7.6-6.1,5.9-7.3,3.7-17c-0.2-0.6-1.4-1.1-0.6-2    c6.1-7.7,1.7-13.8-2.9-19.9C453.2,234.5,452.9,234,452.7,233.1z"
         id="path8" /><path
         class="st1"
         d="M398.2,219.4c-0.2,2.1-0.5,4.2-3.2,4.4c-0.5,0.1-1-0.1-1.5-0.1c-0.4,0.1-0.5,0.3-0.4,0.7    c0.1,0.3,0.1,0.5,0.2,0.5c0.1,0.4,0,0.7-0.3,1c-1.6,0.4-4.4,0.5-1.2,2.8c1.9,1.3,1.2,2.7,0.9,4.2c-0.2,1.3-1.1,2-2.1,2.7    c-4.3,1.7-5.8,1.1-6.9-3c-0.4-1.5-0.9-2.8-1.7-4.1c-2.2-3.7-3-7.1,0.5-10.9c1.7-1.9,3.4-4.6,2.3-7.7c-0.8-2.2,1.1-2.9,2.3-3.9    c1.3-1.1,2.1-2,0.5-3.6c-5.1-5.1-4.9-8.6,0.8-14.6c0.4-0.5,2.1,0.2,1.3-1.4c1-2.9,3.1-5.1,5.3-7c2.2-2,2.3-4-0.3-4.9    c-5.2-1.8-5.4-5.4-4.5-9.8c0.4-1.9-0.3-4,0.5-5.9c0.9-1.1,1.8-2.4,3.6-2.1c3.1,2,0.6,6.4,2.8,7.9c1.9,1.4,5.4-0.1,7.9,1.7    c1.3,0.9,1.9,2.2,2.3,3.7c0.2,0.8,0.5,1.7,1.6,1.6c1.2-0.1,1.4-1.1,1.5-2.2c0.5-6.9,0.5-6.9,6.9-3.2c2.2,1.2,4.6,1.9,6.8,3    c2.1,0.9,4.4,1.6,5.2,4.2c-0.2,1.8-1.3,3.1-2.7,4.1c-1,0.5-2.1,0.7-2.9,1.6c-1,2.2-1.9,4.4-5.3,3.4c0.7,2.5,4.3,3.7,2.7,6.7    c-2.4,2-5.5-1.1-8.5,1.5c3.5-1,6.3-1.1,7.3,2.6c0.9,3.4-1.7,7.7-6.3,9.6c-3.7,1.5-5.2-1.3-6.6-4c-0.3-2.3-1.2-4.1-4-5    c1.6,6.9-0.6,13-3,19c-0.3,0.3-0.6,0.5-0.9,0.7c-0.7,0.3-1.4,0.4-2,1C397.3,216.3,399.2,217.6,398.2,219.4z"
         id="path10" /><path
         class="st2"
         d="M407.4,232.2c0.4-1,2-1.7,1.1-2.9c-0.7-1-1.8,0-2.7,0.3c-2,0.6-4.4,1.7-5.3-1.4c-0.7-2.6,0.9-3.8,3.4-4.4    c2.3-0.5,4.5-1.4,7-2.2c-2.3-2.1-5.8,0.8-6.5-1.4c-1-2.8-0.4-6.2-0.2-9.3c0.2-2.8,1-5.5,2.7-7.8c3.9,3.8,7.9-1.4,12,0.2    c0.6,0.2,0.5-2.3,0.8-3.5c0.7-2.8-0.7-6.5,3.3-7.9c1.1,0.8,1.6,1.9,2.1,3.1c0.9,2.4,1.1,5,1.8,7.4c-0.4,6-1.8,12-1.1,18.2    c0.2,1.7-0.8,3.5-2.4,4.6c-1.8,0.5-2.1-0.9-2.4-2.1c-0.2-0.8-0.1-1.6-0.3-2.3c-0.3,0.1-0.5,0.2-0.5,0.6c-0.1,1.7,0.2,3.5-1.1,5    c-2.2,1.2-2.7,3.9-4.6,5.4C412.2,232.3,409.9,233.5,407.4,232.2z"
         id="path12" /><path
         class="st2"
         d="M412.2,248.8c0.5-4.2,3.2-3.4,6.3-3.2c9,0.6,17.7-0.3,25.2-6.6c1.7-1.5,4.2,1.6,5.3,3.6    c1.6,3.1,1.3,6.6-0.7,9.5c-3.3,5.1-7.6,8.7-14.3,7.4c-2.9-0.6-5.8-1.1-8.8-1.7c-0.8-1.5,0.6-2.8,0.3-4.3c-0.7-4.3,2-4.5,5.1-3.9    c-6.3-1.1-10.1,0.8-10.8,5.3c-4.1-0.2-6.8-2.1-7.7-6.2L412.2,248.8z"
         id="path14" /><path
         class="st2"
         d="M423,177.9c0.8-1,1.9-0.8,3-0.8c1.4,0.8,2.5,0.3,3.3-0.9c0.7-1,1.3-1.9,2.7-1.5c5,2.8,6.1,7.5,6,12.7    c0,1.6,0,3.2-0.8,4.7c-0.2,2.7-3.2,2.6-4.4,4.3c-1.1,1.6-2.4,3.7,0.7,3.6c4,0,4.1,2.4,4.4,5c0.2,2.5,0.3,4.9,0.3,7.4    c0,1.9,0.3,3.6-2.9,3.5c-2.7-0.1-1.9,2.9-2.2,4.7c0.2,0.3,0.3,0.5,0.3,0.8c0,0.3-0.1,0.4-0.2,0.4c-4.1-1.2-6.5-5.7-4.1-8.7    c1.5-1.9,0.9-2.9,0-4.2c-2-3-2.7-6.3-3.2-9.8c-0.1-1.9-1-3.5-1.5-5.3c-1.3-3.6-0.2-5.7,3.7-6.1c1.3-0.1,2.2-0.5,2-2    c0.1-1.4,1.6-3.2-1.4-3.8c-1.2,1.7,2.2,3.8-0.2,5.4c-5.5,1.1-7.2-0.4-6.3-5.7C422.6,180.5,423.1,179.2,423,177.9z"
         id="path16" /><path
         class="st3"
         d="M428.6,323.7c-1.4,0.9-3.1,0.3-4.7,0.4c-0.8,0.1-1.6,0.3-1.7-1c-2.4-18.3-8.4-35.5-16.5-52.1    c-3.2-6.6-5.4-13.5-7.5-20.7c3-0.9,5.2-1.3,4.4,3.2c-0.5,2.5,1.5,4.7,2.5,6.9c3.7,8.6,7.5,17.3,11.4,25.8    c4.1,9,10.6,17.7,9.9,28.7C426.2,317.8,427.8,320.8,428.6,323.7z"
         id="path18" /><path
         class="st3"
         d="M452.2,316.7c1.7,0.9,4.1,1.3,4.9,2.7c3.1,5.4,10.8,4.4,13.5,10.2c6.9-2.7,9.1,5.4,14.4,6.4    c1.7,0.3,2.5,1.6,2.9,3c0.5,1.6,1.2,3.4-0.5,4.5c-1.4,1-3.3,0.2-4.1-0.9c-3.7-5.2-10.1-6-15-9.2c-5.5-3.5-12.1-5.2-18.3-7.6    c-1.7-0.7-3.5-0.8-2.5-3.6C448.4,319.7,448.7,317,452.2,316.7z"
         id="path20" /><path
         class="st3"
         d="M429,234c-1.1-0.1-0.5-2.6-2.4-1.5c-2.3,1.3-4.7,3.2-4.1,5.7c1.2,5.1-1.9,4.5-4.8,4.4c-2.3-0.1-4.7-0.4-6.9-1    c-4.3-1.3-4.7-2.9-1.8-6.6c1.2-2.7,4-2.5,6.1-3.5c1.6-1.7,3-3.4,5.3-4.2c2.4-0.9,4.2-2.4,5.3-4.8c0.8-1.6,2.5-3,3.7-0.8    c1.8,3.4,5.1,6.9,2.2,11.3C431,233.8,430.2,234.5,429,234z"
         id="path22" /><path
         class="st4"
         d="M386.6,332.8c-3-2,1-6.6-2.6-9.5c-1.3-1.1-0.3-2.9,0.2-4.2c0.6-1.7,1.1-3.4,0.8-5.1c-0.1-0.7-1.9-1.4,0-2.1    c1-0.4,2.3-1.4,3.1,0c0.9,1.7,3.9,2.5,1.9,5.6c-1.4,2.3,0.6,5,1.8,7.1c2.4,4.1,4.9,7.8,1.7,12.7c-0.6,1,1.3,4.3-1.9,2.9    C389.1,339.1,385.4,338,386.6,332.8z"
         id="path24" /><path
         class="st5"
         d="M391.6,346.7c3.3,3.9,1.5,8,1.6,11.6c0.1,4-1.2,8.2-2.6,12c-1.4,4.1-5.3,4.6-8.8,3.5c-3.1-1-2.1-4.1-1.7-6.5    c0.3-1.7,1.2-2.9,3.1-2.3c2.6,0.7,4-1.9,6.4-2c0.6,0,1.3-0.9,1.2-1.9C389.7,354.8,389.7,354.8,391.6,346.7z"
         id="path26" /><path
         class="st3"
         d="M432.9,222.2c0.1-0.5,0.1-1,0.2-1.5c0.6,0.1,1.2,0.3,1.9,0.4c1.4,1.2,3.3-0.2,4.7,1c1.4,1.6-1.2,2.5-0.7,4    c0.6,1.8,0.6,4,3.4,2.9c0.8-0.3,1.5-1.6,2.5-0.6c0.8,0.9,0.6,2.2,0.2,3.3c-1.9,4.8-5.6,7.6-10.1,9.5c-2.5,1-5.3,1.3-8.1,2    c-0.1-2.7,1-4.4,1.9-6.2c0.6-0.4,1.2-0.7,1.9-0.7c1.6,0.2,2.5-0.7,2.6-2.2c0.2-1.9,0.1-3.9,1.8-5.4c0.9-0.8,0.3-1.8-0.3-2.6    C433.9,224.8,432.6,223.9,432.9,222.2z"
         id="path28" /><path
         class="st6"
         d="M423,192c-3.5,3.3-0.7,8-2.5,11.8c-0.2,0.3,1.1,1.6-0.3,2.1c-1,0.4-1.9-0.2-2.5-1.1c-0.6-0.8-1.4-3.3-2.6-1    c-3.5,6.7-5.6,1.1-8.1-0.7c0-1.4,0-2.7,0-4.1c0.5,1.8,3.6,0.6,3.6,3.1c0,0.2,0.8,0.5,1.3,0.5c3,0.2,8.5-7.5,7-10.1    c-1.6-2.6-3.7-1.8-5.7-0.1c-0.8,0.7-1.5,2.5-2.7,1.5c-1.6-1.3,0.8-2.1,1-3.2c0.7-3.8,2.8-4,5.6-2.3c1.3,0.8,2.6,0.2,3.8,0.4    C423.3,188.8,423.3,190.3,423,192z"
         id="path30" /><path
         class="st7"
         d="M441,266.1c2.6-0.6,5.7-0.3,4.6-4.9c-0.5-2.1,2-3.6,4.3-4.1c1.4-0.3,3.1-0.6,3.5,1.6c0.4,2.4,1.1,5.8-1.2,6.8    c-3.7,1.7-7.2,4-11.4,4.6c-1.9,0.3-2.9,0-2.7-2.1C437.6,265.4,440.2,267.2,441,266.1z"
         id="path32" /><path
         class="st8"
         d="M389,297.1c-0.7,3,2.2,7.2-3,8.6c-1.8,0.5-3.2-0.8-2.2-1.8c3.2-3.6-0.6-5.5-2.1-6.8c-1.8-1.7-1.3-3.1-1.1-4.7    c0.3-2,0.2-1.7,2.3-0.5c2.2,1.3,5.1,1.4,7.1,3.3C390.6,296.2,389.5,296.5,389,297.1z"
         id="path34" /><path
         class="st9"
         d="M419.9,255c-2-5.6-2-5.6,4.7-6.1c3-0.2,6.1-1.1,9.1,0.6c-1.4,2.6-3.5,0.6-5.3,0.9c-1.3,0.2-3.9,1.1-2.3,2.3    c4.2,3,0.1,3.6-0.9,5.2C423.5,256.9,421.7,255.9,419.9,255z"
         id="path36" /><path
         class="st10"
         d="M431.6,272.9c4.7-0.3,9.5-0.4,14.7-1.9c-5.3,5.8-12.5,6.8-18.2,3C428.4,271.3,430.2,272.9,431.6,272.9z"
         id="path38" /><path
         class="st11"
         d="M452.7,233.1c0.5,0.3,1,0.7,1.5,1c-1.7,3.6,1.7,6.9,0.4,10.5c-3.6,0.2-3.2-3-4.3-5c-1.1-2,0.9-4.9-2.1-6.3    C449.8,231.9,451.4,235.3,452.7,233.1z"
         id="path40" /><path
         class="st12"
         d="M443.7,323.1c-2.6-3.3-1-6.9-2.2-10.1c-0.3-0.7,1-1.1,1.9-0.8c1.9,0.6,3.7,1.2,5.8,1.9    C446.9,317.1,443.6,318.9,443.7,323.1z"
         id="path42" /><path
         class="st11"
         d="M427.5,266.1c-2.8,0.1-5.5,0-6.5-3.5c-0.2-0.7-1-1.4-0.2-2.2c0.9-0.8,1.5,0.3,2.2,0.4c3,0.4,4.4,3.3,7,4.3    C429.7,267.2,428.4,266.2,427.5,266.1z"
         id="path44" /><path
         class="st13"
         d="M439.4,306.1c-2.1-0.8-2.2-2.3-2.4-3.5c-0.3-1.7-1.9-3.4-0.4-5.1c0.7-0.7,1.6-0.1,2.1,0.6    c1,1.7,3.5,2.9,1.7,5.5C439.9,304.3,439.8,305.1,439.4,306.1z"
         id="path46" /><path
         class="st13"
         d="M411.4,254c2.4,1.6,4.6,3,6.8,4.5c-1.1,1.6-2.5,3-4.1,2.1C412.1,259.3,410.2,257.5,411.4,254z"
         id="path48" /><path
         class="st14"
         d="M415.1,232.3c-2,0.9-4.1,1.8-6.1,2.7c0.7-1.6-4.8,0.2-1.6-2.9c2.5-0.4,5-0.9,7.5-1.4    C415.4,231.3,415.5,231.8,415.1,232.3z"
         id="path50" /><path
         class="st15"
         d="M399.5,268.6c1.9,0.5,3.5,1.5,3.5,3.8c0,0.8-1.7,2.2-1.8,1.6c-0.7-2.3-4.2-1-4.2-3.8    C396.9,268.4,398.2,268.7,399.5,268.6z"
         id="path52" /><path
         class="st16"
         d="M427.5,266.1c0.8-0.3,1.6-0.6,2.5-0.9c3.6,1.1,7.4,0.6,11.1,0.9c-1,0.7-2.1,1.4-3.1,2    C434.4,267.9,430.7,267.9,427.5,266.1z"
         id="path54" /><path
         class="st17"
         d="M402.8,277.5c1.5,1.5,2.1,2.6,1.9,4c-0.2,1.5-1.6,2-2.8,2.2c-0.6,0.1-1.6,0-1.8-0.3    c-0.9-1.5,0.8-1.7,1.3-2.6C401.9,279.9,402.2,278.9,402.8,277.5z"
         id="path56" /><path
         class="st18"
         d="M431.6,272.9c-1.3,0.2-2.7-0.2-3.6,1.1c-2.3-1.2-5.7-0.7-7.2-4C425,269.2,427.8,272.9,431.6,272.9z"
         id="path58" /><path
         class="st19"
         d="M437.2,192c0-1.7,0-3.4,0-5.1c1.5-2.6-1.6-5.8,1.1-8.3c1.5,4.5,0.7,8.9-0.1,13.3l-0.4,0.1L437.2,192z"
         id="path60" /><path
         class="st20"
         d="M405,247.4c-1.9-0.2-3.7-0.6-5.6,0c-0.9,0.3-2.2,0.6-2.2-0.9c-0.1-1.5,1-1.9,2.3-1.7c2,0.3,4.1,0.6,5.5,2.3    L405,247.4z"
         id="path62" /><path
         class="st21"
         d="M430.8,328.5c-0.6,1.6-2,1.3-3.3,1.5c-1.8,0.2-1.7-1-1.6-2.2c0.1-1.2,0.6-1.9,1.9-1.2    C428.9,327,430.6,326.6,430.8,328.5z"
         id="path64" /><path
         class="st13"
         d="M398.2,219.4c-0.1-1.4-1.2-2.1-2.1-2.9c-1.1-1-1.9-2.3,0-3.5c1,1,1.9,1,2.9,0c0.3,0,0.7,0,1,0    C399.9,215.3,399.6,217.5,398.2,219.4z"
         id="path66" /><path
         class="st22"
         d="M418.8,278.3c2.2,1.7,2.1,4,2.3,6.8C418.3,283.1,418.9,280.6,418.8,278.3z"
         id="path68" /><path
         class="st23"
         d="M405,247.4c0,0-0.1-0.3-0.1-0.3c2.6-0.1,5.3-0.8,7.2,1.7c0,0,0.1-0.1,0.1-0.1    C409.8,248.6,406.9,250.5,405,247.4z"
         id="path70" /><path
         class="st24"
         d="M389,297.1c0.3-0.7,0.6-1.3,1-2c1.4,0.2,2.8,0.2,3.7-1.1c0.6-0.4,1.1-0.3,1.5,0.2    C393.9,296.6,391.9,297.9,389,297.1z"
         id="path72" /><path
         class="st25"
         d="M395.3,294.1c-0.5-0.1-1-0.1-1.5-0.2c0.4-1.1-0.7-2.9,1.5-3c0.6,0,1.5,0.3,1.6,0.7    C397.5,293,396.3,293.6,395.3,294.1z"
         id="path74" /><path
         class="st26"
         d="M397.9,278.9c-1.1-0.5-1.8-0.8-1.8-1.8c0-1,0.8-1.6,1.5-1.4c0.6,0.1,1.4,1,1.4,1.6    C399.2,277.7,398.3,278.4,397.9,278.9z"
         id="path76" /><path
         class="st4"
         d="M431,237c-0.7,0-1.5-0.1-2.2-0.1c0.1-1,0.1-1.9,0.2-2.9c0.6-0.3,1.3-0.7,1.9-1    C432.2,234.3,432.2,235.6,431,237z"
         id="path78" /><path
         class="st27"
         d="M387.4,288.6c1,0.1,2.1,0.1,3.9,0.2C389.5,290.4,388.4,290,387.4,288.6z"
         id="path80" /><path
         class="st28"
         d="M394.2,222.8c0.3,0.4,0.6,0.7,0.8,1.1c-0.3,1.1-0.4,2.6-1.1,3.1c-1.3,1-0.7-0.6-0.9-1    c-0.3-0.2-0.4-0.4-0.2-0.7C392.9,224.2,393.1,223.3,394.2,222.8z"
         id="path82" /><path
         class="st4"
         d="M439.7,222c-1.6-0.2-3.4,0.6-4.7-1C436.6,221.1,438.4,220.5,439.7,222z"
         id="path84" /><path
         class="st29"
         d="M391,234.9c0.6-0.7,1.1-1.3,1.7-2c0.5,0.1,1,0.1,1.5,0.2c-0.8,1.2-1.9,2.2-3.2,2.9c-0.3-0.2-0.4-0.5-0.3-0.7    C390.8,235,390.9,234.9,391,234.9z"
         id="path86" /><path
         d="M391,234.9c0,0.4,0,0.7,0,1.1c-1.4,1.6-2.8,3.2-4.3,4.8c-4.9,5.1-10.1,4.6-14.1-1.3c-2.5-3.8-3.9-8.1-5-12.4    c-1.2-4.9-4.1-7.8-8.8-9.1c-4.4-1.2-6.8-3.4-7-8.6c-0.1-3.4,1.2-8-3.2-10.5c-1.1-0.6-0.4-2.2,0.1-3.2c1-2.1,2.1-4,3.2-6    c1.1,0.4,2.3,0.7,2.3,2.2c-0.6,0.5-1.1,1.1-1.1,1.8c0.1-0.7,0.6-1.3,1.1-1.8c1.1,0,1.5,0.9,1.8,1.8c0.4,1.3-0.1,2.8,0.8,4    c0.7-0.2,1.2-0.8,1.9-1.1c2.5-2.7,5.2-5,9.2-4.7c0.9,0.1,1.5-0.6,1.8-1.4c0.1-0.2,0.3-0.3,0.4-0.5c3.2-0.5,6,0.6,8.1,3    c2.1,2.4,3.3,1.3,4.5-0.7c2.1-3.7,2.3-7.9,3.6-11.9c0.6-2.1-1.6-3.3-3.3-3.8c-2.8-0.7-5.6,0.9-6.4,3.2c-0.9,2.6-2,3.1-4.2,2.7    c-2.3-0.4-3.9-1.7-4.3-4.2c-0.6-3.4-0.4-6.8,0.7-9.8c1.7-4.6,0.2-8-3-11c-1-0.9-2.4-1.7-0.9-3.1c3.1-2.8,1.1-4.6-0.8-6.9    c-6.4-7.5-7.4-13.4-4-19.4c1.8-3.2,3.7-3,6.2-1.2c-0.3,0.5-0.7,0.7-1.2,1c0.3,0.2,0.6,0.2,1,0.2c0.6,0.1,1.2,0.4,1.6,0.8    c0.8,0.2-0.4,3.7,2.1,1.3c1.3-1.3,2.8-2,4.7-1.6c0.6,0.4,1.3,1.1,1,1.6c-1.8,2.8-0.1,5,1.2,7.4c1.4-1.8-0.5-5,2.4-6.1    c1.2-0.5,2.2,0.4,3,1.3c1.4,2.7,2.2,5.6,5.1,7.6c2.4,1.7,1.7,5.1,0.9,7.9c-2.1,1.7,1.7,1.3,0.9,2.6c0,1.8-0.5,3.4-2.1,4.4    c-1.6,1-3.7,0.6-5.1,2.2c-1.4,2.8-1.6,6.1-3.4,9.3c3.2-2.8,1.8-6.8,3.7-9.5c2.2-1.5,3.8-1.3,4.1,1.6c0.2,2.1,0.4,4.2,1.8,6.3    c-1.9-3.1-2.2-6.1-1.2-9.3c3.5-1.9,4.4-1.3,4.8,2.9c0.1,2.2,0.7,4.2-0.2,6.6c-2.2,5.5,3.3,7.2,6.2,9.2c2.9,2.1,1.4,3.2,0.1,4.1    c-3.1,2.1-4.8,5.3-7.1,8c-0.2,0.6-0.8,0.8-1.2,1.1c-2.2,2.8-4.1,5.7-3.9,9.4c0.1,2.1,0.4,4,3.3,4.1c1.1,0,2.5,0.1,2.7,1.7    c0.2,1.3-0.8,2.1-1.5,3c-1.1,1.5-7.6,0.9-2.2,5.2c-2.8,2.1-1.6,6.4-4.6,8.2c-2.1,1.3-2.4,2.9-1.6,5c1.2,3.2,4.1,5.3,4.3,9.4    C385.7,237.7,388.9,235.5,391,234.9z"
         id="path88" /><path
         class="st30"
         d="M388,151.1c0.2-0.9-2.1-0.7-0.9-2.1c2.5-1.9,5-3.6,8.3-2.5c1.3,0.8,1.3,2.3,1.7,4c1.3-2.4-0.8-2.6-1.2-3.6    c-0.1-1.5,1.1-2,2.1-2.5c4-1,6.2,1.6,5.5,4.6c-0.9,4.1,2.4,6.2,3.1,9.4c0.4,2,1.8-0.3,2.8-0.7c0.4-0.3,1-0.4,1.1-0.8    c0-0.2-0.7,0-1-0.1c-0.6-0.1-1.2-0.3-1.8-0.6c-0.9-1-1.5-2.2-2.5-3c-1.5-1.1-1.8-2.4-0.1-3.6c2.9-1.9,1.6-3.5-0.3-4.9    c-2.7-2.1-5.9-3.6-5.3-8.1c0.3-2.2-2.7-1.8-4.3-2.3c-0.5-0.1-0.9-0.2-1.4-0.3c-2-0.7-3.6-1.9-5.4-3.2c-1-0.7-2,3-4.3,1.9    c-3.4-1.1-7.2-1.2-9.8-4.1c-0.9-0.5-1.5-1.2-1.7-2.2c0-0.5,0.2-0.9,0.6-1.3c7.7,2.7,15.9-1.4,23.7,1.9c4,1.7,6.6,5.5,10.8,6.6    c0.1,0,0.3,0.3,0.3,0.4c-2,5.9,3.8,7.9,5.9,11.7c2,3.7,0.7,8.2,3.5,11.7c0.2,0.2,0.2,0.8,0.1,1c-5.4,6.3,1.6,6.1,4.2,7.3    c3.4,1.6,6.7,3.3,10.5,4.2c3.8,1,6.2,4.3,6.3,8.7c-0.9,2.7,0.7,5.7-1.1,8.3c-0.7-4.7-1.5-9.4-6.1-12.3c-0.7-0.2-1.6,0.1-2.1-0.7    c-1.1-1.8-3-2.5-4.8-3.3c-4.6-1.9-9.5-3.2-12.8-7.7c-0.3,0.4-0.6,0.8-0.9,1.3c0.5,1.7,1,3.3,1.6,5c1.1,3.2-0.9,4.3-3.3,4.8    c-3.4,0.8-2.7-1.8-2.8-3.7c-0.2-2.7-3.8-4.8-6.9-4c-1.2,0.3-2.3,1.1-3.6,1.6c-0.8-3.8,0.6-7.6-1.4-11    C391,155.9,389.9,153.1,388,151.1z"
         id="path90" /><path
         class="st31"
         d="M355.1,194.3c-0.3-0.8-0.3-1.8-1.2-2.2l0,0c-0.7-0.8-1.4-1.6-2.1-2.5c1-1.3,2.4-0.8,3.7-0.7    c3-0.7,6-0.4,9.1-0.2c1.1,1.2,0.2,1.7-0.7,2.2c-1.5,0.7-2.9,1.6-4,2.8c-0.9,1-2,0.4-3,0.3C356.3,194.1,355.8,194.3,355.1,194.3z"
         id="path92" /><path
         class="st18"
         d="M373,126c0.4,0.6,0.7,1.2,1.1,1.8c0.4,0.5,0.4,1-0.1,1.4c-1.3,0.5-3,0.7-3.8,1.7c-1,1.1-0.8,3.6-3.3,2.2    c-2.1-1.2,0.4-2.6,0-3.9c-0.6-1.2,0.5-1.6,1.1-2.2c0.3,0,0.6,0,0.9,0C370.4,127.1,371.2,124.6,373,126z"
         id="path94" /><path
         class="st31"
         d="M365,189.8c-3-1.6-6.3-0.4-9.4-0.9c4.9-0.8,9.8-1.8,14.4,1.1c0,0,0.1,0,0.1,0    C368.3,191.3,366.6,191.5,365,189.8z"
         id="path96" /><path
         class="st32"
         d="M373,126c-1.8-1.2-2.1,3.3-4.1,1c0.7-2.2,2.4-2.2,4.2-1.8C373.2,125.4,373.2,125.7,373,126z"
         id="path98" /><path
         class="st33"
         d="M368,127c-0.4,0.7-0.7,1.4-1.1,2.2c-0.6-0.1-1.3-0.2-1.9-0.2c-0.6-0.5-1.7-0.1-2.1-1c0.7-1.5,2-0.8,3.1-1    C366.6,127,367.3,127,368,127z"
         id="path100" /><path
         class="st34"
         d="M423,192c-0.7-1-1.4-2-2.1-3c-0.6-3.3-4.4-4.5-5.6-8.3c3.6,1.2,6.8,1.7,7.7-2.8c1.8,0.8,0.4,1.7,0.3,2.7    c-0.9,5.3,0.4,6.8,5.6,6.4c0.7-0.5,1-1.7,2.3-1c1,2.8,0.9,3.1-1.4,2.9c-4-0.5-5.6,0.9-4.6,4.9c0.4,1.1-0.1,1.4-1.1,1.2    C423.7,194,423.4,193,423,192z"
         id="path102" /><path
         class="st35"
         d="M406,190.1c-1.7,0.1-1.4-1-1.4-2c0.1-2,0.1-4-1-5.8c-0.5-0.7-2-1-1.2-2.3c0.7-1.1,1.9-1.5,3.1-1.3    c2.7,0.4,5.9,2.5,5.1,4.3C409.6,185.4,409.1,188.9,406,190.1z"
         id="path104" /><path
         class="st8"
         d="M388,151.1c3.9,0.1,4.1,3.8,5.9,6c-1,0.5-1.1,2.1-2.6,2c-0.9-1.7-1.4-3.8-4-2.9c-1.1,0.4-1.4-0.1-1.2-1.1    C386.7,153.7,387.3,152.4,388,151.1z"
         id="path106" /><path
         class="st36"
         d="M428.9,174c0.8-0.1,1.7-0.4,2.1,0.7c-0.7,1.2,0.4,3.6-1.7,3.7c-0.6,0-3.6,2.1-3.3-1.4    C427.3,176.3,427.2,174.3,428.9,174z"
         id="path108" /><path
         class="st37"
         d="M422.7,172.5c0.8,2.3-0.6,3.7-2.1,5c-0.5,0.4-1.3-0.2-1.2-1C419.6,174.6,420.2,172.8,422.7,172.5z"
         id="path110" /><path
         class="st38"
         d="M394.2,222.8c-0.1,1-0.4,1.9-1.4,2.4c-1.5,0-2.3-1-1.7-2.3C391.8,221.4,393.1,221.6,394.2,222.8z"
         id="path112" /><path
         class="st35"
         d="M389,188c0.4-0.4,0.8-0.8,1.2-1.1c0.9,0.2,1.9,0.4,2.8,0.6c-0.2,0.4-0.2,1-0.5,1.2    C391.2,189.6,390.1,188.7,389,188z"
         id="path114" /><path
         d="M399,213c0.2,1.9-1.3,2-2.5,1.9c-1-0.1-0.7-1.2-0.4-1.9C397,213,398,213,399,213z"
         id="path116" /><path
         class="st39"
         d="M431,237c0-1.3-0.1-2.7-0.1-4c2.8-4.7-2.4-7.6-2.6-11.8c-2.3,6.4-8.8,7.5-13.2,11.2c-0.1-0.5-0.1-1-0.2-1.5    c0.2-2.6,0.1-5.5,4.1-4.9c1.5-2.1-0.4-4.8,1.1-6.9l0,0c2.1-0.3,1.1,1.4,1.4,2.3c0.5,1.2-1.1,3.1,1.4,3.5c0.5-1.4,1.6-2.8,1.5-4.1    c-0.5-6.3,0.3-12.4,1.5-18.4c0-1.2-1.3-2.8,1-3.2c1,3.4,0.6,7.2,4.1,9.7c2,1.4,1.2,4.2-1.2,4.9c-1.1,0.3-0.9,1.1-0.7,1.4    c1.2,2.5,1.2,5.5,3.8,7.2c1.1,1.2,2.3,2.4,3.1,3.7c0.9,1.5,3,3.3-0.8,4c-2.4,0.4-0.2,2.3-0.7,2.9C433.6,234.3,436.1,239.1,431,237    z"
         id="path118" /><path
         class="st40"
         d="M408.2,213.8c-0.9,0.2-1.2-0.4-1.2-1.1c0.1-2.4,2.3-1.9,3.6-2.6c0.7-0.4,1.9,0.8,1.6,1.3    C411.5,213.1,409.5,213,408.2,213.8z"
         id="path120" /><path
         class="st41"
         d="M426.9,199.1c-1.3,0.8-0.4,2.2-1,3.2c-0.6-2.4-1.2-4.8-1.7-7.3c0.4-0.4,0.7-0.8,1.1-1.2    C426.3,195.3,426.5,197.2,426.9,199.1z"
         id="path122" /><path
         class="st42"
         d="M420,219.1c-0.1,2.3-0.1,4.6-0.2,6.9c0,0.1-0.3,0.2-0.4,0.2c-0.2,0-0.3-0.1-0.4-0.2    C419.8,223.7,418,221.1,420,219.1z"
         id="path124" /><path
         class="st42"
         d="M421.1,222.2c-0.2-1.1,0.1-2.4-1.1-3.1c3.3-0.7,1.4,1.8,1.8,2.9C421.7,222.4,421.5,222.4,421.1,222.2z"
         id="path126" /><path
         class="st31"
         d="M413.4,215.5c1.8-1.5,3.2-0.8,4.9-0.3C416.6,216.9,415.2,216.7,413.4,215.5z"
         id="path128" /><path
         class="st43"
         d="M421.1,222.2c0.2-0.1,0.5-0.2,0.7-0.2c0.6,0.9-0.6,2.4,1,2.9c-0.2,0.8-1.2,1.1-1.4,0.7    C421.1,224.5,421.2,223.3,421.1,222.2z"
         id="path130" /><path
         class="st44"
         d="M431.1,185.9c-0.8,0.3-1.5,0.7-2.3,1c0.5-1.4-0.7-2-1.4-2.9c-0.8-1-2.2-2-0.8-3.4c1.3-1.3,2.8-0.7,4,0.3    c1.2,1,3,2,0.4,3.5C430.9,184.6,431.1,185.4,431.1,185.9z"
         id="path132" /><path
         class="st40"
         d="M433.9,201.7c0.9,1.1,1.9,1.9,2.1,2.8c0.1,0.9-1,1.6-2,1.4c-1-0.2-1.8-0.9-1.9-1.9    C432,202.7,433.3,202.7,433.9,201.7z"
         id="path134" /><path
         class="st10"
         d="M398.3,145.1c-0.4,1-2.2,0.5-2.2,2l0.1-0.1c-3.4-1-5.9,2-9.1,2c-0.5-3.3,2.5-7.9-3.9-9.1    c-1.1-0.2-1.5-4.4-2.2-6.7c0.3-2.8,2.1-1.4,3.5-1.3c1.8,0.1,2.3-0.5,1.6-2.2c-0.4-1.2,0.7-1.7,1.7-2c1.6-0.5,1.3,0.7,1.5,1.6    c0.4,2.6,3.1,2.6,4.7,3.8c1.2,0.9,0.7,1.9-0.2,2.3c-2.4,1-4,2-3.1,5.1c0.9,3,3.1,3,5.5,3C396.9,143.7,397.8,144.2,398.3,145.1z"
         id="path136" /><path
         class="st45"
         d="M382.9,149c0.2,0.6,0.6,1.7,0.6,1.7c-4.5,2.1-6.5,6.7-10,10.5c-1.1-5.1,1.7-10-1.4-14.2    c0.3-0.6,0.7-0.6,1.1-0.1c2,0.1,3.4,1.4,5,2.4c1.8,1.2,2.6,0.4,3.1-1.3C382.1,147.9,382.6,148.2,382.9,149z"
         id="path138" /><path
         class="st46"
         d="M371.1,222c-0.3-1.4,0.2-3-1-4.2c-1.4-1.4-0.9-2.8,0.2-3.9c1.3-1.5,3-1.1,4.5-0.2c1.5,0.8,2.7,2.1,3.1,3.7    c0.3,1.6,2.4,5.1-2.4,3.1c-1.7-0.7-2.2,1-3.2,1.7C371.9,222.6,371.5,222.6,371.1,222z"
         id="path140" /><path
         class="st47"
         d="M384.4,131.9c-1.2,0.2-2.7-0.1-3.5,1.3c-3.2-1.7-3.6,0.2-2.7,2.4c1.7,4-0.7,4-3.4,4.2    c-0.8-1.6,1.1-2.9,0-4.4c-1.3-1-2.5,1.3-3.9,0.3c-0.9-3.1,5.6-2.7,3.1-6.5c0-0.5,0.1-0.9,0.1-1.4    C377,130.6,380.9,130.5,384.4,131.9z"
         id="path142" /><path
         class="st48"
         d="M376.3,204.3c-0.1-1.8,1.3-2.8,2.3-4.1c0.5,2.3,4.3,1.9,4,4.3c-0.3,2.4-1.1,6.2-3.7,6.1    C376,210.4,377.3,206.5,376.3,204.3z"
         id="path144" /><path
         class="st15"
         d="M365,189.8c1.7,0.1,3.4,0.1,5.1,0.2c0.8,2.2,2.6,5.1-2.4,3.3c-4-1.4-5.8,2.8-8.8,3.8c-0.8-1-0.9-2-0.2-3.1    C359.8,191,362.2,190.1,365,189.8z"
         id="path146" /><path
         class="st49"
         d="M365,196.1c0.9-1.4,2.4-1.5,3.4-0.6c2.1,2,4.2,2.9,6.7-0.2c0.5,3.3,0.5,5.6-1.7,6.7    c-2.3,1.2-3.4-1.4-4.9-2.4c-1.2-0.8-1.8-2.5-3.5-2.4c-0.3-0.2-0.4-0.5-0.3-0.7C364.8,196.2,364.9,196.1,365,196.1z"
         id="path148" /><path
         class="st50"
         d="M382,158.1c0,4.9-0.3,9.6-6.9,12.5c2.1-5.1,3.9-9.4,5.7-13.6C382,156.5,382.2,157.1,382,158.1z"
         id="path150" /><path
         class="st51"
         d="M364.8,200c1,2.5-0.6,4.4-1.8,6.2c-0.7,1.1-2.1,0.8-3.2,0.6c-1.3-0.2-1-1.4-1.1-2.3c-0.1-1.4,0.5-2,2-2.2    c1.3-0.2,3.7,0.6,3.1-2.3C364.1,199.7,364.5,199.7,364.8,200z"
         id="path152" /><path
         class="st50"
         d="M382,158.1c-0.4-0.4-0.8-0.8-1.2-1.2c1.7-0.6,3.4-1.3,5.2-1.9c0.4,0.4,0.8,0.7,1.2,1.1    c-1,3.6,1.1,7.1,0.9,11.4c-2.4-2.8-3.2-5.5-3.2-8.2C385,155.9,383.4,157.6,382,158.1z"
         id="path154" /><path
         class="st52"
         d="M369,145c-1.5-1.3-0.5-4.7-4-4.3c-0.8,0.1-1.1-1.2-0.8-2c0.2-0.5,0.9-0.9,1.5-1.1c1.2-0.2,2.4-0.1,2.9,1.2    c0.5,1.4,0.9,2.8,1.3,4.2C369.4,143.6,369.8,144.5,369,145z"
         id="path156" /><path
         class="st53"
         d="M385.1,172.7c-2-0.2-4.1,2.2-5.9,0.1c-0.8-0.9,0.7-1.5,1.5-2.1C383.3,168.9,383.7,171.8,385.1,172.7z"
         id="path158" /><path
         class="st13"
         d="M355.1,194.3c0.9-0.5,0.3-2.2,1.8-2.2c1.5,2.6,0.8,5.3,0.1,8C353.2,199.2,355.6,196.2,355.1,194.3z"
         id="path160" /><path
         class="st54"
         d="M365.3,215.7c-1.4-2.1-0.9-4,0.5-5.6c0.2-0.3,1.7-0.1,1.8,0.2C368.5,212.7,365.9,213.8,365.3,215.7z"
         id="path162" /><path
         class="st55"
         d="M373.9,207.6c-0.4,0.2-0.7,0.6-0.9,0.5c-1.7-0.6-3.8,1.9-5.3-0.5c-0.3-0.5-0.9-1.4,0-1.5    C369.9,205.7,372.3,205.3,373.9,207.6z"
         id="path164" /><path
         class="st31"
         d="M357.1,200c0-2.7-0.1-5.3-0.1-8c0.6,0.6,1.2,1.3,1.8,1.9c0.1,1,0.1,2.1,0.2,3.1    C358.3,198,357.7,199,357.1,200z"
         id="path166" /><path
         class="st26"
         d="M353.9,192c0.3,2.1-0.3,3.8-2.9,5.4C351.8,195,350.6,192.5,353.9,192C354,192.1,353.9,192,353.9,192z"
         id="path168" /><path
         class="st56"
         d="M375.7,171.3c-0.6,1.9-1.8,2.7-3.4,2.4c-0.3-0.1-0.8-0.9-0.7-1.1C372.4,171.4,373.7,170.7,375.7,171.3z"
         id="path170" /><path
         class="st57"
         d="M369,145c0-0.8,0.1-1.5,0.9-1.9c1.5,1,3.7,1.4,3.3,3.9c-0.4,0-0.7,0.1-1.1,0.1C371,146.3,370,145.6,369,145z    "
         id="path172" /><path
         class="st58"
         d="M382.9,149c-0.5-0.3-1.1-0.6-1.6-0.9c0.4-1.4,0.5-3,2.5-3.1C384.9,146.7,383.5,147.8,382.9,149z"
         id="path174" /><path
         class="st21"
         d="M379.6,140.8c1,0.2,1.6,0.5,1.2,1.3c-0.4,0.8-0.6,1.9-1.8,2c-0.9,0.1-1-0.7-0.9-1.3    C378.3,141.8,378.8,141,379.6,140.8z"
         id="path176" /><path
         class="st59"
         d="M371.1,222c0.4,0.1,0.8,0.1,1.2,0.2c0.3,1.4,2.4,0.1,2.5,1.6c0,0.3-1,1-1.5,1    C371.3,225,370.7,223.9,371.1,222z"
         id="path178" /><path
         class="st56"
         d="M364.8,200c-0.3,0-0.7,0-1,0c-1.4-1.9-0.2-3,1.2-4c0,0.3,0,0.7,0,1C364.9,198.1,364.9,199,364.8,200z"
         id="path180" /><path
         class="st51"
         d="M362.9,127.9c0.9,0,1.7,0,2.1,1c-0.8,0.4-1.5,1.7-2.5,1C361.6,129.3,362.4,128.6,362.9,127.9z"
         id="path182" /><path
         class="st7"
         d="M398.3,145.1c-0.9-0.1-1.7-0.2-2.3-1.1c-2-0.8-2.8-2.2-2.1-4.3c0.7-2.2,0.7-4.5,1.1-6.7    c1.6,0.3,3.2,0.6,4.8,0.9c1.8,0.3,2.3,1.6,1.2,2.8c-2.7,2.8-0.1,3.8,1.6,5.1c0.5,0.4,1.1,0.7,1.6,1.1c1.9,1.3,4,2.6,4.5,5    c1.1,4.3-4.3,0.5-4.3,3.8c2.6,0,3.2,2,3.4,4.3c0.5,0.9,2.8,0.1,2.1,2.2c-0.6,1-1.1,2-1.7,3c-0.6,1-1.6,1.1-2.6,0.9    c-1.4-0.2-1.2-1.4-1.1-2.3c0.5-4.3-3.3-7.6-2.3-12.1C402.8,145.4,400.7,144.3,398.3,145.1z"
         id="path184" /><path
         class="st35"
         d="M395.1,133c1,1.9,1.8,4.3,0.4,5.9c-1.9,2.2,0,3.4,0.6,5.1c-3.7,2.6-5.7,1.2-6.6-2.8    c-0.4-1.9-0.9-3.8-1.3-5.4c1.5-2.2,5,0.8,5.7-2.7C394.2,133.1,394.7,133,395.1,133z"
         id="path186" /><path
         class="st16"
         d="M396,147.1c1.2,0.7,3.5-1.1,3.7,0.9c0.3,2.6-2,3.8-4.2,5.1c-1.4-2.4,1.5-4.1,0.5-6.1    C396.2,147,396,147.1,396,147.1z"
         id="path188" /><path
         class="st60"
         d="M410.1,158.2c-0.7-0.7-1.4-1.5-2.1-2.2c0.6,0,1.3-0.1,1.9-0.1c1.2,0,2.9-2.2,3.4,0.5    C414,159.6,411,157.1,410.1,158.2z"
         id="path190" /></g></g></svg>